# Blender v2.79 (sub 0) OBJ File: ''
# www.blender.org
mtllib ball.mtl
o Sphere
v 0.081851 0.970942 -0.224883
v 0.158945 0.885456 -0.436697
v 0.226801 0.748511 -0.623132
v 0.281477 0.568065 -0.773352
v 0.319795 0.354605 -0.878628
v 0.339527 0.120537 -0.932841
v 0.339527 -0.120537 -0.932841
v 0.319795 -0.354605 -0.878628
v 0.281477 -0.568065 -0.773352
v 0.226801 -0.748511 -0.623131
v 0.158945 -0.885456 -0.436697
v 0.081851 -0.970942 -0.224883
v 0.153829 0.970942 -0.183326
v 0.298719 0.885456 -0.355999
v 0.426247 0.748511 -0.507981
v 0.529004 0.568065 -0.630442
v 0.601017 0.354605 -0.716264
v 0.638101 0.120537 -0.760459
v 0.638101 -0.120537 -0.760459
v 0.601017 -0.354605 -0.716264
v 0.529004 -0.568065 -0.630442
v 0.426247 -0.748511 -0.507981
v 0.298718 -0.885456 -0.355998
v 0.153829 -0.970942 -0.183326
v 0.207254 0.970942 -0.119658
v 0.402462 0.885456 -0.232361
v 0.574281 0.748511 -0.331561
v 0.712725 0.568065 -0.411492
v 0.809748 0.354605 -0.467508
v 0.859711 0.120537 -0.496354
v 0.859711 -0.120537 -0.496354
v 0.809748 -0.354605 -0.467508
v 0.712725 -0.568065 -0.411492
v 0.574281 -0.748511 -0.331561
v 0.402462 -0.885456 -0.232361
v 0.207254 -0.970942 -0.119658
v 0.235680 0.970942 -0.041556
v 0.457663 0.885456 -0.080698
v 0.653049 0.748511 -0.115150
v 0.810481 0.568065 -0.142909
v 0.920812 0.354605 -0.162364
v 0.977628 0.120537 -0.172382
v 0.977628 -0.120537 -0.172382
v 0.920812 -0.354605 -0.162364
v 0.810481 -0.568065 -0.142909
v 0.653049 -0.748511 -0.115150
v 0.457663 -0.885456 -0.080698
v 0.235680 -0.970942 -0.041556
v 0.235680 0.970942 0.041557
v 0.457663 0.885456 0.080699
v 0.653049 0.748511 0.115150
v 0.810481 0.568065 0.142910
v 0.920812 0.354605 0.162364
v 0.977628 0.120537 0.172382
v 0.977628 -0.120537 0.172382
v 0.920812 -0.354605 0.162364
v 0.810481 -0.568065 0.142910
v 0.653049 -0.748511 0.115150
v 0.457663 -0.885456 0.080699
v 0.235680 -0.970942 0.041557
v 0.207254 0.970942 0.119658
v 0.402462 0.885456 0.232362
v 0.574281 0.748511 0.331562
v 0.712725 0.568065 0.411492
v 0.809748 0.354605 0.467509
v 0.859711 0.120537 0.496355
v 0.859711 -0.120537 0.496355
v 0.809748 -0.354605 0.467509
v 0.712725 -0.568065 0.411492
v 0.574281 -0.748511 0.331562
v 0.402462 -0.885456 0.232362
v 0.207254 -0.970942 0.119658
v 0.153829 0.970942 0.183327
v 0.298719 0.885456 0.355999
v 0.426247 0.748511 0.507982
v 0.529004 0.568065 0.630443
v 0.601017 0.354605 0.716264
v 0.638101 0.120537 0.760460
v 0.638101 -0.120537 0.760460
v 0.601017 -0.354605 0.716264
v 0.529004 -0.568065 0.630443
v 0.426247 -0.748511 0.507982
v 0.298718 -0.885456 0.355999
v 0.153829 -0.970942 0.183327
v 0.081851 0.970942 0.224884
v 0.158945 0.885456 0.436698
v 0.226802 0.748511 0.623132
v 0.281477 0.568065 0.773352
v 0.319795 0.354605 0.878628
v 0.339527 0.120537 0.932842
v 0.339527 -0.120537 0.932842
v 0.319795 -0.354605 0.878628
v 0.281477 -0.568065 0.773353
v 0.226802 -0.748511 0.623132
v 0.158945 -0.885456 0.436697
v 0.081851 -0.970942 0.224884
v 0.000000 -1.000000 0.000000
v 0.000000 0.970942 0.239316
v 0.000000 0.885456 0.464724
v 0.000000 0.748511 0.663123
v 0.000000 0.568065 0.822984
v 0.000000 0.354605 0.935017
v 0.000000 0.120537 0.992710
v 0.000000 -0.120537 0.992710
v 0.000000 -0.354605 0.935017
v 0.000000 -0.568065 0.822985
v 0.000000 -0.748511 0.663123
v 0.000000 -0.885456 0.464724
v 0.000000 -0.970942 0.239316
v -0.081851 0.970942 0.224884
v -0.158945 0.885456 0.436698
v -0.226801 0.748511 0.623132
v -0.281477 0.568065 0.773353
v -0.319794 0.354605 0.878629
v -0.339526 0.120537 0.932842
v -0.339526 -0.120537 0.932842
v -0.319794 -0.354605 0.878629
v -0.281477 -0.568065 0.773353
v -0.226801 -0.748511 0.623132
v -0.158945 -0.885456 0.436697
v -0.081851 -0.970942 0.224884
v -0.153829 0.970942 0.183327
v -0.298718 0.885456 0.355999
v -0.426247 0.748511 0.507982
v -0.529004 0.568065 0.630443
v -0.601017 0.354605 0.716265
v -0.638101 0.120537 0.760460
v -0.638101 -0.120537 0.760460
v -0.601017 -0.354605 0.716265
v -0.529004 -0.568065 0.630443
v -0.426247 -0.748511 0.507982
v -0.298718 -0.885456 0.355999
v -0.153829 -0.970942 0.183327
v -0.207254 0.970942 0.119658
v -0.402462 0.885456 0.232362
v -0.574281 0.748511 0.331562
v -0.712725 0.568065 0.411493
v -0.809748 0.354605 0.467509
v -0.859711 0.120537 0.496355
v -0.859711 -0.120537 0.496355
v -0.809748 -0.354605 0.467509
v -0.712725 -0.568065 0.411493
v -0.574281 -0.748511 0.331562
v -0.402462 -0.885456 0.232362
v -0.207253 -0.970942 0.119658
v -0.000000 1.000000 0.000000
v -0.235680 0.970942 0.041557
v -0.457663 0.885456 0.080699
v -0.653049 0.748511 0.115151
v -0.810481 0.568065 0.142910
v -0.920811 0.354605 0.162364
v -0.977628 0.120537 0.172383
v -0.977628 -0.120537 0.172383
v -0.920811 -0.354605 0.162364
v -0.810481 -0.568065 0.142910
v -0.653048 -0.748511 0.115151
v -0.457663 -0.885456 0.080699
v -0.235680 -0.970942 0.041557
v -0.235680 0.970942 -0.041556
v -0.457663 0.885456 -0.080698
v -0.653049 0.748511 -0.115150
v -0.810481 0.568065 -0.142909
v -0.920812 0.354605 -0.162363
v -0.977628 0.120537 -0.172382
v -0.977628 -0.120537 -0.172382
v -0.920812 -0.354605 -0.162363
v -0.810481 -0.568065 -0.142909
v -0.653049 -0.748511 -0.115150
v -0.457663 -0.885456 -0.080698
v -0.235680 -0.970942 -0.041556
v -0.207254 0.970942 -0.119658
v -0.402462 0.885456 -0.232361
v -0.574281 0.748511 -0.331561
v -0.712725 0.568065 -0.411491
v -0.809748 0.354605 -0.467508
v -0.859711 0.120537 -0.496354
v -0.859711 -0.120537 -0.496354
v -0.809748 -0.354605 -0.467508
v -0.712725 -0.568065 -0.411491
v -0.574281 -0.748511 -0.331561
v -0.402462 -0.885456 -0.232361
v -0.207254 -0.970942 -0.119657
v -0.153829 0.970942 -0.183326
v -0.298719 0.885456 -0.355998
v -0.426247 0.748511 -0.507981
v -0.529004 0.568065 -0.630442
v -0.601017 0.354605 -0.716264
v -0.638101 0.120537 -0.760459
v -0.638101 -0.120537 -0.760459
v -0.601017 -0.354605 -0.716264
v -0.529004 -0.568065 -0.630442
v -0.426247 -0.748511 -0.507981
v -0.298718 -0.885456 -0.355998
v -0.153829 -0.970942 -0.183326
v -0.081851 0.970942 -0.224883
v -0.158945 0.885456 -0.436697
v -0.226802 0.748511 -0.623131
v -0.281477 0.568065 -0.773352
v -0.319795 0.354605 -0.878628
v -0.339527 0.120537 -0.932841
v -0.339527 -0.120537 -0.932841
v -0.319795 -0.354605 -0.878628
v -0.281477 -0.568065 -0.773352
v -0.226802 -0.748511 -0.623131
v -0.158945 -0.885456 -0.436697
v -0.081851 -0.970942 -0.224883
v -0.000000 0.970942 -0.239316
v -0.000000 0.885456 -0.464723
v -0.000000 0.748511 -0.663123
v -0.000000 0.568065 -0.822984
v -0.000000 0.354605 -0.935016
v -0.000000 0.120537 -0.992709
v -0.000000 -0.120537 -0.992709
v -0.000000 -0.354605 -0.935016
v -0.000000 -0.568065 -0.822984
v -0.000000 -0.748511 -0.663122
v -0.000000 -0.885456 -0.464723
v -0.000000 -0.970942 -0.239315
vn 0.0212 0.9925 -0.1205
vn 0.1543 -0.4592 -0.8749
vn 0.0624 0.9332 -0.3539
vn 0.1308 -0.6574 -0.7421
vn 0.0997 0.8189 -0.5652
vn 0.0997 -0.8189 -0.5652
vn 0.1308 0.6574 -0.7421
vn 0.0624 -0.9332 -0.3539
vn 0.1543 0.4592 -0.8749
vn 0.0212 -0.9925 -0.1205
vn 0.1687 0.2359 -0.9570
vn 0.1736 0.0000 -0.9848
vn 0.1687 -0.2359 -0.9570
vn 0.3768 -0.6574 -0.6526
vn 0.2870 0.8189 -0.4971
vn 0.2870 -0.8189 -0.4971
vn 0.3768 0.6574 -0.6526
vn 0.1797 -0.9332 -0.3112
vn 0.4442 0.4592 -0.7693
vn 0.0612 -0.9925 -0.1060
vn 0.4859 0.2359 -0.8416
vn 0.5000 0.0000 -0.8660
vn 0.4859 -0.2359 -0.8416
vn 0.0612 0.9925 -0.1060
vn 0.4442 -0.4592 -0.7693
vn 0.1797 0.9332 -0.3112
vn 0.0937 -0.9925 -0.0787
vn 0.7444 0.2359 -0.6246
vn 0.7660 0.0000 -0.6428
vn 0.7444 -0.2359 -0.6246
vn 0.0937 0.9925 -0.0787
vn 0.6805 -0.4592 -0.5710
vn 0.2753 0.9332 -0.2310
vn 0.5772 -0.6574 -0.4844
vn 0.4397 0.8189 -0.3689
vn 0.4397 -0.8189 -0.3689
vn 0.5772 0.6574 -0.4844
vn 0.2753 -0.9332 -0.2310
vn 0.6805 0.4592 -0.5710
vn 0.9132 -0.2359 -0.3324
vn 0.1150 0.9925 -0.0419
vn 0.8348 -0.4592 -0.3038
vn 0.3377 0.9332 -0.1229
vn 0.7081 -0.6574 -0.2577
vn 0.5393 0.8189 -0.1963
vn 0.5393 -0.8189 -0.1963
vn 0.7081 0.6574 -0.2577
vn 0.3377 -0.9332 -0.1229
vn 0.8348 0.4592 -0.3038
vn 0.1150 -0.9925 -0.0419
vn 0.9132 0.2359 -0.3324
vn 0.9397 0.0000 -0.3420
vn 0.5740 0.8189 0.0000
vn 0.5740 -0.8189 -0.0000
vn 0.7535 0.6574 0.0000
vn 0.3594 -0.9332 0.0000
vn 0.8884 0.4592 -0.0000
vn 0.1224 -0.9925 0.0000
vn 0.9718 0.2359 0.0000
vn 1.0000 0.0000 0.0000
vn 0.9718 -0.2359 -0.0000
vn 0.1224 0.9925 0.0000
vn 0.8884 -0.4592 0.0000
vn 0.3594 0.9332 0.0000
vn 0.7535 -0.6574 0.0000
vn 0.1150 -0.9925 0.0419
vn 0.9132 0.2359 0.3324
vn 0.9397 0.0000 0.3420
vn 0.9132 -0.2359 0.3324
vn 0.1150 0.9925 0.0419
vn 0.8348 -0.4592 0.3038
vn 0.3377 0.9332 0.1229
vn 0.7081 -0.6574 0.2577
vn 0.5393 0.8189 0.1963
vn 0.5393 -0.8189 0.1963
vn 0.7081 0.6574 0.2577
vn 0.3377 -0.9332 0.1229
vn 0.8348 0.4592 0.3038
vn 0.0937 0.9925 0.0787
vn 0.6805 -0.4592 0.5710
vn 0.2753 0.9332 0.2310
vn 0.5772 -0.6574 0.4844
vn 0.4397 0.8189 0.3689
vn 0.4397 -0.8189 0.3689
vn 0.5772 0.6574 0.4844
vn 0.2753 -0.9332 0.2310
vn 0.6805 0.4592 0.5710
vn 0.0937 -0.9925 0.0787
vn 0.7444 0.2359 0.6246
vn 0.7660 0.0000 0.6428
vn 0.7444 -0.2359 0.6246
vn 0.2870 -0.8189 0.4971
vn 0.3768 0.6574 0.6526
vn 0.1797 -0.9332 0.3112
vn 0.4442 0.4592 0.7693
vn 0.0612 -0.9925 0.1060
vn 0.4859 0.2359 0.8416
vn 0.5000 0.0000 0.8660
vn 0.4859 -0.2359 0.8416
vn 0.0612 0.9925 0.1060
vn 0.4442 -0.4592 0.7693
vn 0.1797 0.9332 0.3112
vn 0.3768 -0.6574 0.6526
vn 0.2870 0.8189 0.4971
vn 0.1687 0.2359 0.9570
vn 0.1736 0.0000 0.9848
vn 0.1687 -0.2359 0.9570
vn 0.0212 0.9925 0.1205
vn 0.1543 -0.4592 0.8749
vn 0.0624 0.9332 0.3539
vn 0.1308 -0.6574 0.7421
vn 0.0997 0.8189 0.5652
vn 0.0997 -0.8189 0.5652
vn 0.1308 0.6574 0.7421
vn 0.0624 -0.9332 0.3539
vn 0.1543 0.4592 0.8749
vn 0.0212 -0.9925 0.1205
vn -0.1543 -0.4592 0.8749
vn -0.0624 0.9332 0.3539
vn -0.1308 -0.6574 0.7421
vn -0.0997 0.8189 0.5652
vn -0.0997 -0.8189 0.5652
vn -0.1308 0.6574 0.7421
vn -0.0624 -0.9332 0.3539
vn -0.1543 0.4592 0.8749
vn -0.0212 -0.9925 0.1205
vn -0.1687 0.2359 0.9570
vn -0.1736 0.0000 0.9848
vn -0.1687 -0.2359 0.9570
vn -0.0212 0.9925 0.1205
vn -0.3768 0.6574 0.6526
vn -0.1797 -0.9332 0.3112
vn -0.4442 0.4592 0.7693
vn -0.0612 -0.9925 0.1060
vn -0.4859 0.2359 0.8416
vn -0.5000 0.0000 0.8660
vn -0.4859 -0.2359 0.8416
vn -0.0612 0.9925 0.1060
vn -0.4442 -0.4592 0.7693
vn -0.1797 0.9332 0.3112
vn -0.3768 -0.6574 0.6526
vn -0.2870 0.8189 0.4971
vn -0.2870 -0.8189 0.4971
vn -0.7660 0.0000 0.6428
vn -0.7444 -0.2359 0.6246
vn -0.0937 0.9925 0.0787
vn -0.6805 -0.4592 0.5710
vn -0.2753 0.9332 0.2310
vn -0.5772 -0.6574 0.4844
vn -0.4397 0.8189 0.3689
vn -0.4397 -0.8189 0.3689
vn -0.5772 0.6574 0.4844
vn -0.2753 -0.9332 0.2310
vn -0.6805 0.4592 0.5710
vn -0.0937 -0.9925 0.0787
vn -0.7444 0.2359 0.6246
vn -0.8348 -0.4592 0.3038
vn -0.3377 0.9332 0.1229
vn -0.7081 -0.6574 0.2577
vn -0.5393 0.8189 0.1963
vn -0.5393 -0.8189 0.1963
vn -0.7081 0.6574 0.2577
vn -0.3377 -0.9332 0.1229
vn -0.8348 0.4592 0.3038
vn -0.1150 -0.9925 0.0419
vn -0.9132 0.2359 0.3324
vn -0.9397 0.0000 0.3420
vn -0.9132 -0.2359 0.3324
vn -0.1150 0.9925 0.0419
vn -0.3594 -0.9332 0.0000
vn -0.8884 0.4592 0.0000
vn -0.1224 -0.9925 0.0000
vn -0.9718 0.2359 0.0000
vn -1.0000 0.0000 0.0000
vn -0.9718 -0.2359 0.0000
vn -0.1224 0.9925 0.0000
vn -0.8884 -0.4592 0.0000
vn -0.3594 0.9332 0.0000
vn -0.7535 -0.6574 -0.0000
vn -0.5740 0.8189 0.0000
vn -0.5740 -0.8189 0.0000
vn -0.7535 0.6574 0.0000
vn -0.9397 0.0000 -0.3420
vn -0.9132 -0.2359 -0.3324
vn -0.1150 0.9925 -0.0419
vn -0.8348 -0.4592 -0.3038
vn -0.3377 0.9332 -0.1229
vn -0.7081 -0.6574 -0.2577
vn -0.5393 0.8189 -0.1963
vn -0.5393 -0.8189 -0.1963
vn -0.7081 0.6574 -0.2577
vn -0.3377 -0.9332 -0.1229
vn -0.8348 0.4592 -0.3038
vn -0.1150 -0.9925 -0.0419
vn -0.9132 0.2359 -0.3324
vn -0.2753 0.9332 -0.2310
vn -0.5772 -0.6574 -0.4844
vn -0.4397 0.8189 -0.3689
vn -0.4397 -0.8189 -0.3689
vn -0.5772 0.6574 -0.4844
vn -0.2753 -0.9332 -0.2310
vn -0.6805 0.4592 -0.5710
vn -0.0937 -0.9925 -0.0787
vn -0.7444 0.2359 -0.6246
vn -0.7660 0.0000 -0.6428
vn -0.7444 -0.2359 -0.6246
vn -0.0937 0.9925 -0.0787
vn -0.6805 -0.4592 -0.5710
vn -0.1797 -0.9332 -0.3112
vn -0.4442 0.4592 -0.7693
vn -0.0612 -0.9925 -0.1060
vn -0.4859 0.2359 -0.8416
vn -0.5000 0.0000 -0.8660
vn -0.4859 -0.2359 -0.8416
vn -0.0612 0.9925 -0.1060
vn -0.4442 -0.4592 -0.7693
vn -0.1797 0.9332 -0.3112
vn -0.3768 -0.6574 -0.6526
vn -0.2870 0.8189 -0.4971
vn -0.2870 -0.8189 -0.4971
vn -0.3768 0.6574 -0.6526
vn -0.1687 -0.2359 -0.9570
vn -0.0212 0.9925 -0.1205
vn -0.1543 -0.4592 -0.8749
vn -0.0624 0.9332 -0.3539
vn -0.1308 -0.6574 -0.7421
vn -0.0997 0.8189 -0.5652
vn -0.0997 -0.8189 -0.5652
vn -0.1308 0.6574 -0.7421
vn -0.0624 -0.9332 -0.3539
vn -0.1543 0.4592 -0.8749
vn -0.0212 -0.9925 -0.1205
vn -0.1687 0.2359 -0.9570
vn -0.1736 0.0000 -0.9848
usemtl None
s off
f 207//1 146//1 1//1
f 214//2 9//2 215//2
f 208//3 1//3 2//3
f 215//4 10//4 216//4
f 209//5 2//5 3//5
f 216//6 11//6 217//6
f 210//7 3//7 4//7
f 217//8 12//8 218//8
f 211//9 4//9 5//9
f 97//10 218//10 12//10
f 211//11 6//11 212//11
f 212//12 7//12 213//12
f 213//13 8//13 214//13
f 9//14 22//14 10//14
f 2//15 15//15 3//15
f 10//16 23//16 11//16
f 3//17 16//17 4//17
f 12//18 23//18 24//18
f 4//19 17//19 5//19
f 97//20 12//20 24//20
f 5//21 18//21 6//21
f 6//22 19//22 7//22
f 7//23 20//23 8//23
f 1//24 146//24 13//24
f 8//25 21//25 9//25
f 1//26 14//26 2//26
f 97//27 24//27 36//27
f 17//28 30//28 18//28
f 18//29 31//29 19//29
f 19//30 32//30 20//30
f 13//31 146//31 25//31
f 21//32 32//32 33//32
f 13//33 26//33 14//33
f 21//34 34//34 22//34
f 14//35 27//35 15//35
f 22//36 35//36 23//36
f 15//37 28//37 16//37
f 23//38 36//38 24//38
f 16//39 29//39 17//39
f 31//40 44//40 32//40
f 25//41 146//41 37//41
f 32//42 45//42 33//42
f 26//43 37//43 38//43
f 33//44 46//44 34//44
f 26//45 39//45 27//45
f 34//46 47//46 35//46
f 28//47 39//47 40//47
f 35//48 48//48 36//48
f 28//49 41//49 29//49
f 97//50 36//50 48//50
f 30//51 41//51 42//51
f 30//52 43//52 31//52
f 39//53 50//53 51//53
f 46//54 59//54 47//54
f 39//55 52//55 40//55
f 47//56 60//56 48//56
f 40//57 53//57 41//57
f 97//58 48//58 60//58
f 42//59 53//59 54//59
f 42//60 55//60 43//60
f 43//61 56//61 44//61
f 37//62 146//62 49//62
f 45//63 56//63 57//63
f 38//64 49//64 50//64
f 45//65 58//65 46//65
f 97//66 60//66 72//66
f 54//67 65//67 66//67
f 54//68 67//68 55//68
f 55//69 68//69 56//69
f 49//70 146//70 61//70
f 57//71 68//71 69//71
f 49//72 62//72 50//72
f 57//73 70//73 58//73
f 51//74 62//74 63//74
f 59//75 70//75 71//75
f 51//76 64//76 52//76
f 60//77 71//77 72//77
f 52//78 65//78 53//78
f 61//79 146//79 73//79
f 68//80 81//80 69//80
f 62//81 73//81 74//81
f 69//82 82//82 70//82
f 62//83 75//83 63//83
f 70//84 83//84 71//84
f 63//85 76//85 64//85
f 72//86 83//86 84//86
f 64//87 77//87 65//87
f 97//88 72//88 84//88
f 66//89 77//89 78//89
f 66//90 79//90 67//90
f 67//91 80//91 68//91
f 83//92 94//92 95//92
f 75//93 88//93 76//93
f 84//94 95//94 96//94
f 76//95 89//95 77//95
f 97//96 84//96 96//96
f 78//97 89//97 90//97
f 78//98 91//98 79//98
f 79//99 92//99 80//99
f 73//100 146//100 85//100
f 80//101 93//101 81//101
f 73//102 86//102 74//102
f 81//103 94//103 82//103
f 74//104 87//104 75//104
f 89//105 103//105 90//105
f 90//106 104//106 91//106
f 91//107 105//107 92//107
f 85//108 146//108 98//108
f 92//109 106//109 93//109
f 85//110 99//110 86//110
f 93//111 107//111 94//111
f 86//112 100//112 87//112
f 95//113 107//113 108//113
f 87//114 101//114 88//114
f 95//115 109//115 96//115
f 88//116 102//116 89//116
f 97//117 96//117 109//117
f 106//118 117//118 118//118
f 99//119 110//119 111//119
f 106//120 119//120 107//120
f 99//121 112//121 100//121
f 108//122 119//122 120//122
f 100//123 113//123 101//123
f 109//124 120//124 121//124
f 101//125 114//125 102//125
f 97//126 109//126 121//126
f 102//127 115//127 103//127
f 103//128 116//128 104//128
f 104//129 117//129 105//129
f 98//130 146//130 110//130
f 112//131 125//131 113//131
f 120//132 133//132 121//132
f 113//133 126//133 114//133
f 97//134 121//134 133//134
f 114//135 127//135 115//135
f 115//136 128//136 116//136
f 116//137 129//137 117//137
f 110//138 146//138 122//138
f 117//139 130//139 118//139
f 110//140 123//140 111//140
f 119//141 130//141 131//141
f 111//142 124//142 112//142
f 119//143 132//143 120//143
f 127//144 140//144 128//144
f 128//145 141//145 129//145
f 122//146 146//146 134//146
f 129//147 142//147 130//147
f 122//148 135//148 123//148
f 131//149 142//149 143//149
f 124//150 135//150 136//150
f 131//151 144//151 132//151
f 124//152 137//152 125//152
f 132//153 145//153 133//153
f 125//154 138//154 126//154
f 97//155 133//155 145//155
f 127//156 138//156 139//156
f 141//157 155//157 142//157
f 135//158 147//158 148//158
f 143//159 155//159 156//159
f 136//160 148//160 149//160
f 144//161 156//161 157//161
f 136//162 150//162 137//162
f 144//163 158//163 145//163
f 137//164 151//164 138//164
f 97//165 145//165 158//165
f 138//166 152//166 139//166
f 139//167 153//167 140//167
f 140//168 154//168 141//168
f 134//169 146//169 147//169
f 158//170 169//170 170//170
f 150//171 163//171 151//171
f 97//172 158//172 170//172
f 152//173 163//173 164//173
f 152//174 165//174 153//174
f 153//175 166//175 154//175
f 147//176 146//176 159//176
f 154//177 167//177 155//177
f 147//178 160//178 148//178
f 155//179 168//179 156//179
f 148//180 161//180 149//180
f 157//181 168//181 169//181
f 150//182 161//182 162//182
f 164//183 177//183 165//183
f 165//184 178//184 166//184
f 159//185 146//185 171//185
f 167//186 178//186 179//186
f 159//187 172//187 160//187
f 168//188 179//188 180//188
f 160//189 173//189 161//189
f 169//190 180//190 181//190
f 161//191 174//191 162//191
f 169//192 182//192 170//192
f 162//193 175//193 163//193
f 97//194 170//194 182//194
f 163//195 176//195 164//195
f 171//196 184//196 172//196
f 179//197 192//197 180//197
f 173//198 184//198 185//198
f 180//199 193//199 181//199
f 173//200 186//200 174//200
f 181//201 194//201 182//201
f 174//202 187//202 175//202
f 97//203 182//203 194//203
f 175//204 188//204 176//204
f 176//205 189//205 177//205
f 177//206 190//206 178//206
f 171//207 146//207 183//207
f 178//208 191//208 179//208
f 193//209 206//209 194//209
f 186//210 199//210 187//210
f 97//211 194//211 206//211
f 188//212 199//212 200//212
f 188//213 201//213 189//213
f 189//214 202//214 190//214
f 183//215 146//215 195//215
f 190//216 203//216 191//216
f 183//217 196//217 184//217
f 191//218 204//218 192//218
f 184//219 197//219 185//219
f 192//220 205//220 193//220
f 185//221 198//221 186//221
f 201//222 214//222 202//222
f 195//223 146//223 207//223
f 202//224 215//224 203//224
f 196//225 207//225 208//225
f 204//226 215//226 216//226
f 196//227 209//227 197//227
f 205//228 216//228 217//228
f 197//229 210//229 198//229
f 205//230 218//230 206//230
f 198//231 211//231 199//231
f 97//232 206//232 218//232
f 200//233 211//233 212//233
f 200//234 213//234 201//234
f 214//2 8//2 9//2
f 208//3 207//3 1//3
f 215//4 9//4 10//4
f 209//5 208//5 2//5
f 216//6 10//6 11//6
f 210//7 209//7 3//7
f 217//8 11//8 12//8
f 211//9 210//9 4//9
f 211//11 5//11 6//11
f 212//12 6//12 7//12
f 213//13 7//13 8//13
f 9//14 21//14 22//14
f 2//15 14//15 15//15
f 10//16 22//16 23//16
f 3//17 15//17 16//17
f 12//18 11//18 23//18
f 4//19 16//19 17//19
f 5//21 17//21 18//21
f 6//22 18//22 19//22
f 7//23 19//23 20//23
f 8//25 20//25 21//25
f 1//26 13//26 14//26
f 17//28 29//28 30//28
f 18//29 30//29 31//29
f 19//30 31//30 32//30
f 21//32 20//32 32//32
f 13//33 25//33 26//33
f 21//34 33//34 34//34
f 14//35 26//35 27//35
f 22//36 34//36 35//36
f 15//37 27//37 28//37
f 23//38 35//38 36//38
f 16//39 28//39 29//39
f 31//40 43//40 44//40
f 32//42 44//42 45//42
f 26//43 25//43 37//43
f 33//44 45//44 46//44
f 26//45 38//45 39//45
f 34//46 46//46 47//46
f 28//47 27//47 39//47
f 35//48 47//48 48//48
f 28//49 40//49 41//49
f 30//51 29//51 41//51
f 30//52 42//52 43//52
f 39//53 38//53 50//53
f 46//54 58//54 59//54
f 39//55 51//55 52//55
f 47//56 59//56 60//56
f 40//57 52//57 53//57
f 42//59 41//59 53//59
f 42//60 54//60 55//60
f 43//61 55//61 56//61
f 45//63 44//63 56//63
f 38//64 37//64 49//64
f 45//65 57//65 58//65
f 54//67 53//67 65//67
f 54//68 66//68 67//68
f 55//69 67//69 68//69
f 57//71 56//71 68//71
f 49//72 61//72 62//72
f 57//73 69//73 70//73
f 51//74 50//74 62//74
f 59//75 58//75 70//75
f 51//76 63//76 64//76
f 60//77 59//77 71//77
f 52//78 64//78 65//78
f 68//80 80//80 81//80
f 62//81 61//81 73//81
f 69//82 81//82 82//82
f 62//83 74//83 75//83
f 70//84 82//84 83//84
f 63//85 75//85 76//85
f 72//86 71//86 83//86
f 64//87 76//87 77//87
f 66//89 65//89 77//89
f 66//90 78//90 79//90
f 67//91 79//91 80//91
f 83//92 82//92 94//92
f 75//93 87//93 88//93
f 84//94 83//94 95//94
f 76//95 88//95 89//95
f 78//97 77//97 89//97
f 78//98 90//98 91//98
f 79//99 91//99 92//99
f 80//101 92//101 93//101
f 73//102 85//102 86//102
f 81//103 93//103 94//103
f 74//104 86//104 87//104
f 89//105 102//105 103//105
f 90//106 103//106 104//106
f 91//107 104//107 105//107
f 92//109 105//109 106//109
f 85//110 98//110 99//110
f 93//111 106//111 107//111
f 86//112 99//112 100//112
f 95//113 94//113 107//113
f 87//114 100//114 101//114
f 95//115 108//115 109//115
f 88//116 101//116 102//116
f 106//118 105//118 117//118
f 99//119 98//119 110//119
f 106//120 118//120 119//120
f 99//121 111//121 112//121
f 108//122 107//122 119//122
f 100//123 112//123 113//123
f 109//124 108//124 120//124
f 101//125 113//125 114//125
f 102//127 114//127 115//127
f 103//128 115//128 116//128
f 104//129 116//129 117//129
f 112//131 124//131 125//131
f 120//132 132//132 133//132
f 113//133 125//133 126//133
f 114//135 126//135 127//135
f 115//136 127//136 128//136
f 116//137 128//137 129//137
f 117//139 129//139 130//139
f 110//140 122//140 123//140
f 119//141 118//141 130//141
f 111//142 123//142 124//142
f 119//143 131//143 132//143
f 127//144 139//144 140//144
f 128//145 140//145 141//145
f 129//147 141//147 142//147
f 122//148 134//148 135//148
f 131//149 130//149 142//149
f 124//150 123//150 135//150
f 131//151 143//151 144//151
f 124//152 136//152 137//152
f 132//153 144//153 145//153
f 125//154 137//154 138//154
f 127//156 126//156 138//156
f 141//157 154//157 155//157
f 135//158 134//158 147//158
f 143//159 142//159 155//159
f 136//160 135//160 148//160
f 144//161 143//161 156//161
f 136//162 149//162 150//162
f 144//163 157//163 158//163
f 137//164 150//164 151//164
f 138//166 151//166 152//166
f 139//167 152//167 153//167
f 140//168 153//168 154//168
f 158//170 157//170 169//170
f 150//171 162//171 163//171
f 152//173 151//173 163//173
f 152//174 164//174 165//174
f 153//175 165//175 166//175
f 154//177 166//177 167//177
f 147//178 159//178 160//178
f 155//179 167//179 168//179
f 148//180 160//180 161//180
f 157//181 156//181 168//181
f 150//182 149//182 161//182
f 164//183 176//183 177//183
f 165//184 177//184 178//184
f 167//186 166//186 178//186
f 159//187 171//187 172//187
f 168//188 167//188 179//188
f 160//189 172//189 173//189
f 169//190 168//190 180//190
f 161//191 173//191 174//191
f 169//192 181//192 182//192
f 162//193 174//193 175//193
f 163//195 175//195 176//195
f 171//196 183//196 184//196
f 179//197 191//197 192//197
f 173//198 172//198 184//198
f 180//199 192//199 193//199
f 173//200 185//200 186//200
f 181//201 193//201 194//201
f 174//202 186//202 187//202
f 175//204 187//204 188//204
f 176//205 188//205 189//205
f 177//206 189//206 190//206
f 178//208 190//208 191//208
f 193//209 205//209 206//209
f 186//210 198//210 199//210
f 188//212 187//212 199//212
f 188//213 200//213 201//213
f 189//214 201//214 202//214
f 190//216 202//216 203//216
f 183//217 195//217 196//217
f 191//218 203//218 204//218
f 184//219 196//219 197//219
f 192//220 204//220 205//220
f 185//221 197//221 198//221
f 201//222 213//222 214//222
f 202//224 214//224 215//224
f 196//225 195//225 207//225
f 204//226 203//226 215//226
f 196//227 208//227 209//227
f 205//228 204//228 216//228
f 197//229 209//229 210//229
f 205//230 217//230 218//230
f 198//231 210//231 211//231
f 200//233 199//233 211//233
f 200//234 212//234 213//234
