# Blender v2.79 (sub 0) OBJ File: 'bug.blend'
# www.blender.org
mtllib bug.mtl
o 2
v 0.707342 0.010756 0.785028
v 0.630025 0.081478 0.928185
v 0.703228 0.146064 0.759029
v 0.630283 0.185827 0.900980
v 1.064024 -0.000483 0.776401
v 1.224384 -0.007653 0.915492
v 1.031763 0.085365 0.770621
v 1.193300 0.088549 0.905178
v 1.888724 -0.181715 0.649123
v 1.935820 -0.180616 0.700911
v 1.875615 -0.162170 0.650856
v 1.919431 -0.161351 0.699481
v 0.745753 0.040917 0.245275
v 0.668396 0.042361 0.410306
v 0.726636 0.152003 0.238229
v 0.657046 0.154469 0.398313
v 1.084460 0.002999 0.356930
v 1.433569 -0.068348 0.580495
v 1.057570 0.079927 0.358014
v 1.405334 0.018934 0.578833
v 1.949521 -0.167279 0.464703
v 1.973147 -0.174229 0.520746
v 1.945299 -0.159091 0.462377
v 1.967303 -0.165695 0.514811
v 0.401224 0.105349 -0.385059
v 0.500284 0.105349 -0.282002
v 0.416704 0.192975 -0.380081
v 0.511839 0.192975 -0.282109
v 0.865663 0.084374 -0.848947
v 0.991766 0.056453 -0.805690
v 0.857073 0.137291 -0.812464
v 0.983308 0.116100 -0.772277
v 1.229929 -0.034886 -1.496422
v 1.271087 -0.042635 -1.471097
v 1.226192 -0.023061 -1.481041
v 1.264615 -0.030450 -1.457052
v -0.688592 0.012793 0.818550
v -0.528960 0.067785 0.873020
v -0.696454 0.150387 0.815867
v -0.542497 0.174670 0.868401
v -0.947076 -0.017298 1.062893
v -0.962448 -0.052228 1.271834
v -0.923569 0.070227 1.047701
v -0.942393 0.046085 1.255722
v -1.629230 -0.225951 1.532257
v -1.625841 -0.234516 1.601658
v -1.617657 -0.206111 1.526849
v -1.614202 -0.214340 1.591696
v -0.710292 0.040917 0.115788
v -0.737659 0.042361 0.295982
v -0.690483 0.152003 0.120550
v -0.721559 0.154469 0.292317
v -1.053948 0.002999 0.020447
v -1.468428 -0.068348 0.012378
v -1.032192 0.079927 0.036288
v -1.444028 0.018934 0.026684
v -1.833093 -0.167279 -0.370549
v -1.883874 -0.174229 -0.337076
v -1.828291 -0.159091 -0.370137
v -1.875717 -0.165695 -0.338765
v -0.454467 0.105349 -0.431620
v -0.464254 0.105349 -0.289009
v -0.463140 0.192975 -0.417866
v -0.473182 0.192975 -0.281673
v -1.108370 0.084374 -0.489114
v -1.177284 0.056453 -0.374991
v -1.078363 0.137291 -0.466658
v -1.149348 0.116100 -0.354803
v -1.803334 -0.034886 -0.751677
v -1.818631 -0.042635 -0.705836
v -1.790595 -0.023061 -0.742283
v -1.804652 -0.030450 -0.699223
v 0.522787 0.056736 1.507833
v 0.522786 0.056736 1.983732
v 0.236669 0.056736 2.212476
v 0.246703 0.056736 1.181321
v 0.485865 0.272992 1.547327
v 0.485864 0.272992 1.949574
v 0.253831 0.272992 1.272806
v 0.243618 0.272992 2.039032
v 0.322607 0.337703 1.673665
v 0.322606 0.337703 1.805590
v 0.163258 0.400865 1.685255
v 0.163258 0.400865 1.776776
v 0.607532 1.190372 1.098879
v 0.607532 1.190372 1.154891
v 0.539877 1.217188 1.103800
v 0.539877 1.217188 1.142657
v -0.522787 0.056736 1.507833
v -0.522786 0.056736 1.983732
v 0.000000 0.056736 1.507833
v 0.000000 0.056736 1.983732
v -0.236669 0.056736 2.212476
v 0.000000 0.056736 2.212476
v -0.246703 0.056736 1.181321
v 0.000000 0.056736 1.181321
v -0.485865 0.272992 1.547327
v -0.485864 0.272992 1.949574
v -0.253831 0.272992 1.272806
v 0.000000 0.272992 2.039032
v -0.243618 0.272992 2.039032
v 0.000000 0.272992 1.272806
v 0.000000 0.465576 1.582666
v 0.000000 0.465576 1.861719
v -0.322607 0.337703 1.673665
v -0.322606 0.337703 1.805590
v -0.163258 0.400865 1.685255
v -0.163258 0.400865 1.776776
v -0.607532 1.190372 1.098879
v -0.607532 1.190372 1.154891
v -0.539877 1.217188 1.103800
v -0.539877 1.217188 1.142657
v 0.342080 0.121950 2.102910
v 0.190330 0.396908 1.868017
v 0.272766 0.390806 1.840039
v 0.353903 0.358683 1.840865
v 0.417670 0.306902 1.870330
v 0.451437 0.245718 1.922599
v 0.448517 0.187250 1.987319
v 0.409488 0.143078 2.051671
v 0.272135 0.424756 1.880188
v 0.352765 0.419859 1.913210
v 0.416251 0.383187 1.960543
v 0.450019 0.322003 2.012811
v 0.447380 0.248426 2.059664
v 0.408857 0.177028 2.091819
v 0.243127 0.442869 1.920130
v 0.300495 0.452497 1.985183
v 0.351071 0.423886 2.050292
v 0.384839 0.362702 2.102561
v 0.395109 0.281064 2.131637
v 0.379849 0.195141 2.131762
v 0.196822 0.438225 1.944609
v 0.217057 0.444130 2.029294
v 0.247026 0.413453 2.105297
v 0.280793 0.352269 2.157565
v 0.311671 0.272697 2.175747
v 0.333544 0.190497 2.156241
v 0.150908 0.412600 1.944275
v 0.134322 0.397955 2.028692
v 0.143857 0.355873 2.104547
v 0.177625 0.294689 2.156815
v 0.228937 0.226522 2.175146
v 0.287630 0.164872 2.155907
v 0.122921 0.375780 1.919256
v 0.083892 0.331608 1.983608
v 0.080972 0.273140 2.048328
v 0.114740 0.211956 2.100597
v 0.178507 0.160175 2.130062
v 0.259643 0.128052 2.130888
v -0.342080 0.121950 2.102910
v -0.190330 0.396908 1.868017
v -0.272766 0.390806 1.840039
v -0.353903 0.358683 1.840865
v -0.417670 0.306902 1.870330
v -0.451437 0.245718 1.922599
v -0.448517 0.187250 1.987319
v -0.409488 0.143078 2.051671
v -0.272135 0.424756 1.880188
v -0.352765 0.419859 1.913210
v -0.416251 0.383187 1.960543
v -0.450019 0.322003 2.012811
v -0.447380 0.248426 2.059664
v -0.408857 0.177028 2.091819
v -0.243127 0.442869 1.920130
v -0.300495 0.452497 1.985183
v -0.351071 0.423886 2.050292
v -0.384839 0.362702 2.102561
v -0.395109 0.281064 2.131637
v -0.379849 0.195141 2.131762
v -0.196822 0.438225 1.944609
v -0.217057 0.444130 2.029294
v -0.247026 0.413453 2.105297
v -0.280793 0.352269 2.157565
v -0.311671 0.272697 2.175747
v -0.333544 0.190497 2.156241
v -0.150908 0.412600 1.944275
v -0.134322 0.397955 2.028692
v -0.143857 0.355873 2.104547
v -0.177625 0.294689 2.156815
v -0.228937 0.226522 2.175146
v -0.287630 0.164872 2.155907
v -0.122921 0.375780 1.919256
v -0.083892 0.331608 1.983608
v -0.080972 0.273140 2.048328
v -0.114740 0.211956 2.100597
v -0.178507 0.160175 2.130062
v -0.259643 0.128052 2.130888
v 0.759473 0.022807 -0.169564
v 0.759471 0.022807 0.709059
v 0.231232 0.022807 1.296263
v 0.249757 0.022807 -0.772384
v 0.552243 0.022807 1.029872
v 0.562903 0.022807 -0.474761
v 0.691306 0.334702 -0.096649
v 0.691305 0.334702 0.645994
v 0.526100 0.334702 -0.353151
v 0.262916 0.334702 -0.603480
v 0.244061 0.334702 1.163960
v 0.517140 0.334702 0.915621
v 0.463593 0.590387 0.001803
v 0.463592 0.590387 0.559943
v 0.324489 0.590387 -0.182192
v 0.102889 0.590387 -0.362913
v 0.152891 0.590387 0.947929
v 0.316945 0.590387 0.753353
v 0.252315 0.698856 0.125668
v 0.252315 0.698856 0.440821
v 0.207541 0.698856 0.021776
v 0.136215 0.698856 -0.080268
v 0.152309 0.698856 0.659897
v 0.205113 0.698856 0.550030
v -0.759473 0.022807 -0.169564
v -0.759471 0.022807 0.709059
v -0.231232 0.022807 1.296263
v -0.249757 0.022807 -0.772384
v -0.552243 0.022807 1.029872
v -0.562903 0.022807 -0.474761
v -0.691306 0.334702 -0.096649
v -0.691305 0.334702 0.645994
v -0.526100 0.334702 -0.353151
v -0.262916 0.334702 -0.603480
v -0.244061 0.334702 1.163960
v -0.517140 0.334702 0.915621
v -0.463593 0.590387 0.001803
v -0.463592 0.590387 0.559943
v -0.324489 0.590387 -0.182192
v -0.102889 0.590387 -0.362913
v -0.152891 0.590387 0.947929
v -0.316945 0.590387 0.753353
v -0.252315 0.698856 0.125668
v -0.252315 0.698856 0.440821
v -0.207541 0.698856 0.021776
v -0.136215 0.698856 -0.080268
v -0.152309 0.698856 0.659897
v -0.205113 0.698856 0.550030
vt 0.8456 0.8675
vt 0.8340 0.8580
vt 0.8338 0.8573
vt 0.8510 0.8694
vt 0.8460 0.8708
vt 0.8516 0.8728
vt 0.8427 0.8671
vt 0.8431 0.8707
vt 0.8516 0.8765
vt 0.8510 0.8742
vt 0.8331 0.8580
vt 0.8329 0.8573
vt 0.8500 0.8619
vt 0.8403 0.8508
vt 0.8402 0.8505
vt 0.8546 0.8649
vt 0.8502 0.8648
vt 0.8534 0.8664
vt 0.8438 0.8582
vt 0.8441 0.8614
vt 0.8536 0.8703
vt 0.8549 0.8689
vt 0.8394 0.8507
vt 0.8393 0.8504
vt 0.8559 0.8583
vt 0.8524 0.8485
vt 0.8524 0.8479
vt 0.8616 0.8638
vt 0.8560 0.8605
vt 0.8597 0.8645
vt 0.8539 0.8575
vt 0.8539 0.8599
vt 0.8596 0.8676
vt 0.8613 0.8669
vt 0.8517 0.8478
vt 0.8518 0.8484
vt 0.8456 0.8675
vt 0.8340 0.8580
vt 0.8460 0.8708
vt 0.8510 0.8694
vt 0.8510 0.8742
vt 0.8516 0.8728
vt 0.8431 0.8707
vt 0.8516 0.8765
vt 0.8331 0.8580
vt 0.8338 0.8573
vt 0.8329 0.8573
vt 0.8427 0.8671
vt 0.8500 0.8619
vt 0.8403 0.8508
vt 0.8502 0.8648
vt 0.8546 0.8649
vt 0.8549 0.8689
vt 0.8534 0.8664
vt 0.8441 0.8614
vt 0.8536 0.8703
vt 0.8394 0.8507
vt 0.8402 0.8505
vt 0.8393 0.8504
vt 0.8438 0.8582
vt 0.8559 0.8583
vt 0.8524 0.8485
vt 0.8560 0.8605
vt 0.8616 0.8638
vt 0.8613 0.8669
vt 0.8597 0.8645
vt 0.8539 0.8599
vt 0.8596 0.8676
vt 0.8517 0.8478
vt 0.8524 0.8479
vt 0.8539 0.8575
vt 0.8518 0.8484
vt 0.7146 0.2229
vt 0.7058 0.1838
vt 0.7204 0.1971
vt 0.6745 0.1779
vt 0.6929 0.2012
vt 0.7023 0.2117
vt 0.6697 0.2482
vt 0.6759 0.2067
vt 0.6525 0.1845
vt 0.6580 0.2218
vt 0.6467 0.1924
vt 0.6640 0.2137
vt 0.7084 0.2313
vt 0.6880 0.2517
vt 0.6617 0.1953
vt 0.5371 0.4751
vt 0.5361 0.4755
vt 0.5365 0.4751
vt 0.5278 0.4648
vt 0.5366 0.4755
vt 0.5290 0.4637
vt 0.5268 0.4647
vt 0.5275 0.4636
vt 0.7058 0.1838
vt 0.7146 0.2229
vt 0.7204 0.1971
vt 0.6745 0.1779
vt 0.7144 0.2053
vt 0.7023 0.2117
vt 0.6525 0.1845
vt 0.6640 0.2137
vt 0.6759 0.2067
vt 0.5371 0.4751
vt 0.5361 0.4755
vt 0.5366 0.4755
vt 0.5278 0.4648
vt 0.5268 0.4647
vt 0.5290 0.4637
vt 0.5365 0.4751
vt 0.5275 0.4636
vt 0.7356 0.2154
vt 0.6980 0.1972
vt 0.7520 0.1972
vt 1.2613 0.1824
vt -0.0642 -0.0422
vt -0.2613 0.1824
vt 1.2613 0.8291
vt 1.0642 -0.0422
vt 0.2497 -0.2613
vt -0.2613 0.8291
vt 1.0535 1.0652
vt 0.6719 0.3118
vt 0.6774 0.2850
vt 0.6924 0.2996
vt -0.0184 0.9811
vt 0.3467 1.0049
vt 0.2554 1.1639
vt -0.1929 0.7827
vt 0.0353 0.3085
vt 0.0353 0.7193
vt 0.2365 -0.1369
vt 0.1747 0.1731
vt -0.0273 0.0473
vt -0.1929 0.2361
vt 0.6993 0.1845
vt 0.7507 0.1845
vt 0.6470 0.2299
vt 0.6709 0.2161
vt 0.6540 0.2354
vt 0.6672 0.2069
vt 0.6470 0.2962
vt 0.6540 0.2915
vt 0.6683 0.3204
vt 0.6999 0.3305
vt 0.7012 0.3405
vt 0.3473 0.7929
vt 0.6533 1.0049
vt 0.3635 0.2481
vt 0.2920 0.3232
vt 0.2471 0.3997
vt 0.6365 0.2481
vt 0.3969 0.0401
vt 0.6031 0.0401
vt 0.7056 0.7120
vt 0.2944 0.7120
vt 0.1823 0.8617
vt 0.7501 0.3305
vt 0.7529 0.3997
vt 0.7529 0.6317
vt 0.2471 0.6317
vt 1.0184 0.9811
vt 0.9647 0.7193
vt 1.1929 0.7827
vt 0.7446 1.1639
vt 0.9647 0.3085
vt 1.1929 0.2361
vt 0.7583 0.2290
vt 0.7791 0.2161
vt 0.7726 0.2429
vt 0.7960 0.2354
vt 0.8030 0.2299
vt 0.7828 0.2069
vt 0.8030 0.2962
vt 0.7817 0.3204
vt 0.7488 0.3405
vt 0.7781 0.3118
vt 0.8253 0.1731
vt 0.7080 0.3232
vt 0.8177 0.8617
vt 0.6527 0.7929
vt -0.0535 1.0652
vt 0.7318 1.2613
vt 0.7144 0.2154
vt 0.7503 -0.2613
vt 0.7960 0.2915
vt 0.2682 1.2613
vt 0.1697 0.9206
vt 0.0924 0.9270
vt 0.1691 0.9562
vt 0.9921 0.1976
vt 0.8851 0.1666
vt 0.8868 0.0639
vt 0.9089 0.5595
vt 0.9962 0.6052
vt 1.0000 0.3744
vt 0.2458 0.8868
vt 0.2447 0.9511
vt 0.7048 0.0000
vt 0.9890 0.3826
vt 0.7367 0.7162
vt 0.9050 0.7903
vt 0.8480 0.4814
vt 0.8068 0.2214
vt 0.8202 0.7283
vt 0.5160 0.9161
vt 0.5926 1.0000
vt 0.7337 0.9013
vt 0.7291 0.9134
vt 0.1419 0.9753
vt 0.4482 0.8819
vt 0.5394 0.6968
vt 0.4377 0.9709
vt 0.3673 0.9747
vt 0.6818 0.2074
vt 0.6227 0.4561
vt 0.0985 0.9704
vt 0.5578 0.1299
vt 0.3994 0.3164
vt 0.1697 0.7077
vt 0.0554 0.9435
vt 0.2609 0.5226
vt 0.1888 0.8793
vt 0.1440 0.8350
vt 0.4823 0.0185
vt 0.2633 0.1156
vt 0.0000 0.4574
vt 0.0292 0.9048
vt 0.0911 0.2723
vt 0.1132 0.7679
vt 0.0079 0.6343
vt 0.1697 0.9206
vt 0.1691 0.9562
vt 0.0924 0.9270
vt 0.8851 0.1666
vt 0.9921 0.1976
vt 0.8868 0.0639
vt 0.9962 0.6052
vt 0.9089 0.5595
vt 1.0000 0.3744
vt 0.2458 0.8868
vt 0.7048 0.0000
vt 0.9890 0.3826
vt 0.9050 0.7903
vt 0.7367 0.7162
vt 0.8068 0.2214
vt 0.8202 0.7283
vt 0.5926 1.0000
vt 0.5160 0.9161
vt 0.7337 0.9013
vt 0.8480 0.4814
vt 0.7291 0.9134
vt 0.1419 0.9753
vt 0.4482 0.8819
vt 0.3673 0.9747
vt 0.4377 0.9709
vt 0.6818 0.2074
vt 0.5394 0.6968
vt 0.0985 0.9704
vt 0.5578 0.1299
vt 0.3994 0.3164
vt 0.6227 0.4561
vt 0.1697 0.7077
vt 0.0554 0.9435
vt 0.2609 0.5226
vt 0.1888 0.8793
vt 0.3127 0.9568
vt 0.4823 0.0185
vt 0.2633 0.1156
vt 0.0000 0.4574
vt 0.1440 0.8350
vt 0.0292 0.9048
vt 0.0911 0.2723
vt 0.1132 0.7679
vt 0.3127 0.9568
vt 0.2447 0.9511
vt 0.0079 0.6343
vn -0.1924 -0.7819 -0.5930
vn 0.2098 0.5562 -0.8041
vn 0.3527 -0.5788 -0.7352
vn -0.0195 -0.9488 -0.3153
vn 0.0850 0.5944 -0.7996
vn 0.0019 -0.2702 0.9628
vn 0.0543 -0.5422 0.8385
vn 0.2586 0.7956 0.5477
vn 0.1341 0.7638 0.6314
vn 0.1545 0.7038 -0.6934
vn 0.6291 0.7566 0.1780
vn 0.8992 -0.3767 0.2225
vn 0.0538 -0.6490 -0.7589
vn 0.4733 0.5026 -0.7234
vn 0.5559 -0.5709 -0.6042
vn 0.1849 -0.6627 -0.7257
vn 0.2993 0.7309 -0.6133
vn -0.2517 -0.5616 0.7882
vn -0.1187 -0.6565 0.7449
vn 0.1108 0.7154 0.6898
vn -0.0092 0.7488 0.6627
vn 0.3528 0.7920 -0.4982
vn 0.6303 0.7505 0.1986
vn 0.7571 -0.3992 0.5171
vn -0.7213 -0.5406 -0.4329
vn -0.1901 0.8440 -0.5015
vn -0.1434 -0.2335 -0.9617
vn -0.5347 -0.6634 -0.5234
vn -0.2983 0.8620 -0.4098
vn 0.4584 -0.7447 0.4849
vn 0.5150 -0.7710 0.3746
vn 0.7295 0.5448 0.4134
vn 0.5810 0.6605 0.4755
vn -0.4031 0.7608 -0.5086
vn 0.7966 -0.4217 -0.4331
vn 0.7684 0.6395 0.0230
vn -0.3268 -0.6825 -0.6537
vn -0.6847 0.6470 -0.3356
vn -0.5913 0.6912 -0.4154
vn -0.2621 -0.8949 -0.3612
vn -0.5592 0.7811 -0.2777
vn 0.6633 -0.3974 0.6341
vn 0.2488 0.6985 0.6709
vn 0.3941 0.6627 0.6368
vn -0.2759 0.6889 0.6702
vn -0.8006 -0.4932 -0.3402
vn -0.4987 -0.4535 0.7387
vn 0.5233 -0.6526 0.5478
vn 0.3768 -0.6490 -0.6609
vn 0.0083 0.5026 -0.8644
vn 0.0918 0.7309 -0.6762
vn 0.2495 -0.6627 -0.7061
vn -0.0165 0.7920 -0.6103
vn -0.2286 -0.5616 0.7952
vn -0.4754 0.7154 0.5120
vn -0.3605 0.7488 0.5561
vn -0.6344 0.7505 -0.1850
vn -0.1265 -0.5709 -0.8112
vn -0.9168 -0.3992 0.0093
vn -0.3151 -0.6565 0.6853
vn 0.2751 -0.5406 -0.7950
vn -0.1762 0.8440 -0.5065
vn -0.0343 0.8620 -0.5058
vn 0.0739 -0.6634 -0.7445
vn -0.0174 0.7608 -0.6487
vn -0.0402 -0.7447 0.6661
vn -0.2939 0.5448 0.7854
vn -0.1401 0.6605 0.7376
vn -0.8888 -0.4217 0.1793
vn -0.5074 -0.2335 -0.8294
vn -0.1544 -0.7710 0.6178
vn -0.5744 0.6395 0.5109
vn 0.3699 0.6189 -0.6929
vn 0.7762 -0.5523 -0.3040
vn 0.3319 -0.4838 -0.8097
vn 0.7375 -0.5074 0.4456
vn 0.0000 -1.0000 0.0000
vn 0.7603 0.5984 -0.2527
vn 0.0000 0.9509 0.3095
vn 0.6862 0.5738 0.4470
vn 0.2692 -0.3835 0.8834
vn 0.0000 0.6519 0.7583
vn 0.0000 -0.4326 0.9015
vn 0.2161 0.6488 0.7296
vn 0.0000 0.6499 -0.7600
vn 0.0000 0.9812 -0.1927
vn 0.6297 0.1814 -0.7553
vn -0.3165 0.8931 0.3196
vn 0.7917 0.4642 0.3972
vn -0.8786 0.0688 -0.4725
vn -0.3707 0.5908 -0.7166
vn 0.6448 -0.5636 -0.5164
vn -0.3612 0.6702 0.6483
vn 0.6256 0.3303 0.7067
vn -0.7762 -0.5523 -0.3040
vn -0.3699 0.6189 -0.6929
vn -0.3319 -0.4838 -0.8097
vn -0.7375 -0.5074 0.4456
vn 0.0000 -0.5524 -0.8335
vn -0.7603 0.5984 -0.2527
vn -0.2692 -0.3835 0.8834
vn -0.2161 0.6488 0.7296
vn -0.6862 0.5738 0.4470
vn -0.6297 0.1814 -0.7553
vn 0.3165 0.8931 0.3196
vn 0.3707 0.5908 -0.7166
vn 0.8786 0.0688 -0.4725
vn 0.3612 0.6702 0.6483
vn -0.6448 -0.5636 -0.5164
vn -0.7917 0.4642 0.3972
vn -0.6256 0.3303 0.7067
vn -0.1590 0.8254 -0.5417
vn 0.3374 0.5707 -0.7486
vn -0.3374 0.5707 -0.7486
vn -0.7987 -0.5436 -0.2578
vn 0.6332 -0.5537 -0.5407
vn 0.7987 -0.5436 -0.2578
vn -0.7975 -0.5473 0.2539
vn -0.6332 -0.5537 -0.5407
vn 0.2943 -0.4527 -0.8417
vn 0.7975 -0.5473 0.2539
vn -0.6188 -0.5568 0.5540
vn 0.6685 0.5005 0.5500
vn 0.5777 0.7957 0.1819
vn 0.4743 0.7994 0.3688
vn 0.2243 0.8036 0.5513
vn 0.3259 0.5103 0.7958
vn 0.8501 0.4689 0.2397
vn 0.5746 0.7988 -0.1781
vn 0.4292 0.8107 -0.3982
vn 0.6597 0.5215 -0.5411
vn 0.8474 0.4750 -0.2370
vn -0.2943 -0.4527 -0.8417
vn 0.6188 -0.5568 0.5540
vn 0.2683 -0.4935 0.8273
vn 0.1845 0.9614 0.2040
vn -0.2243 0.8036 0.5513
vn 0.1456 0.9651 -0.2177
vn 0.2011 0.9718 -0.1227
vn 0.2439 0.9690 -0.0387
vn -0.1456 0.9651 -0.2177
vn 0.1590 0.8254 -0.5417
vn -0.2061 0.9722 0.1108
vn 0.2061 0.9722 0.1108
vn -0.3259 0.5103 0.7958
vn -0.2439 0.9690 -0.0387
vn -0.2443 0.9689 0.0395
vn 0.2443 0.9689 0.0395
vn -0.6685 0.5005 0.5500
vn -0.5777 0.7957 0.1819
vn -0.8501 0.4689 0.2397
vn -0.5746 0.7988 -0.1781
vn -0.8474 0.4750 -0.2370
vn -0.4292 0.8107 -0.3982
vn -0.6597 0.5215 -0.5411
vn -0.2683 -0.4935 0.8273
vn -0.2011 0.9718 -0.1227
vn -0.4743 0.7994 0.3688
vn -0.1845 0.9614 0.2040
vn 0.1111 0.7597 -0.6407
vn -0.3404 0.8014 -0.4918
vn 0.0672 0.8477 -0.5261
vn 0.9745 -0.1634 0.1535
vn 0.7509 -0.3911 0.5321
vn 0.7870 -0.4649 0.4055
vn 0.8239 0.4390 -0.3583
vn 0.9357 0.3263 0.1341
vn 0.9815 0.1536 -0.1144
vn 0.5229 0.6549 -0.5455
vn 0.4634 0.8115 -0.3560
vn 0.4243 -0.5842 0.6918
vn 0.9299 -0.0338 0.3661
vn 0.7704 0.6258 -0.1217
vn 0.6579 0.1360 0.7407
vn 0.5912 -0.2913 0.7520
vn 0.6026 0.5343 0.5927
vn 0.1914 0.9813 0.0185
vn 0.4373 0.8338 0.3369
vn -0.0925 0.9474 -0.3062
vn -0.0944 0.7805 0.6180
vn 0.0709 0.4810 0.8738
vn -0.2428 0.9378 0.2481
vn 0.3362 -0.3169 0.8868
vn 0.2237 0.0925 0.9702
vn -0.3475 0.9219 -0.1714
vn 0.0834 -0.4580 0.8850
vn -0.2069 -0.1478 0.9671
vn -0.6216 0.4862 0.6142
vn -0.6003 0.7808 -0.1732
vn -0.4563 0.1868 0.8700
vn -0.6734 0.6975 0.2450
vn -0.0287 -0.5467 0.8368
vn -0.3857 -0.2998 0.8726
vn -0.8160 0.2745 0.5087
vn -0.7046 0.6779 -0.2094
vn -0.6584 -0.0109 0.7525
vn -0.8373 0.5185 0.1735
vn -0.1111 0.7597 -0.6407
vn -0.0672 0.8477 -0.5261
vn 0.3404 0.8014 -0.4918
vn -0.7509 -0.3911 0.5321
vn -0.9745 -0.1634 0.1535
vn -0.7870 -0.4649 0.4055
vn -0.9357 0.3263 0.1341
vn -0.8239 0.4390 -0.3583
vn -0.9815 0.1536 -0.1144
vn -0.5229 0.6549 -0.5455
vn -0.4243 -0.5842 0.6918
vn -0.9299 -0.0338 0.3661
vn -0.7704 0.6258 -0.1217
vn -0.5912 -0.2913 0.7520
vn -0.6026 0.5343 0.5927
vn -0.1914 0.9813 0.0185
vn -0.4634 0.8115 -0.3560
vn -0.6579 0.1360 0.7407
vn -0.4373 0.8338 0.3369
vn 0.0925 0.9474 -0.3062
vn 0.0944 0.7805 0.6180
vn 0.2428 0.9378 0.2481
vn -0.3362 -0.3169 0.8868
vn -0.0709 0.4810 0.8738
vn 0.3475 0.9219 -0.1714
vn -0.0834 -0.4580 0.8850
vn 0.2069 -0.1478 0.9671
vn -0.2237 0.0925 0.9702
vn 0.6216 0.4862 0.6142
vn 0.6003 0.7808 -0.1732
vn 0.4563 0.1868 0.8700
vn 0.0287 -0.5467 0.8368
vn 0.3857 -0.2998 0.8726
vn 0.8160 0.2745 0.5087
vn 0.6734 0.6975 0.2450
vn 0.7046 0.6779 -0.2094
vn 0.6584 -0.0109 0.7525
vn 0.8373 0.5185 0.1735
usemtl Body
s 1
f 5/1/1 11/2/2 9/3/3
f 1/4/4 7/5/5 5/1/1
f 2/6/6 5/1/1 6/7/7
f 2/6/6 8/8/8 4/9/9
f 4/9/9 7/5/5 3/10/10
f 9/3/3 12/11/11 10/12/12
f 6/7/7 9/3/3 10/12/12
f 6/7/7 12/11/11 8/8/8
f 8/8/8 11/2/2 7/5/5
f 17/13/13 23/14/14 21/15/15
f 13/16/16 19/17/17 17/13/13
f 14/18/18 17/13/13 18/19/19
f 14/18/18 20/20/20 16/21/21
f 16/21/21 19/17/17 15/22/22
f 21/15/15 24/23/23 22/24/24
f 18/19/19 21/15/15 22/24/24
f 18/19/19 24/23/23 20/20/20
f 20/20/20 23/14/14 19/17/17
f 29/25/25 35/26/26 33/27/27
f 25/28/28 31/29/29 29/25/25
f 26/30/30 29/25/25 30/31/31
f 26/30/30 32/32/32 28/33/33
f 28/33/33 31/29/29 27/34/34
f 34/35/35 35/26/26 36/36/36
f 30/31/31 33/27/27 34/35/35
f 30/31/31 36/36/36 32/32/32
f 32/32/32 35/26/26 31/29/29
f 41/37/37 47/38/38 43/39/39
f 37/40/40 43/39/39 39/41/41
f 38/42/42 41/37/37 37/40/40
f 44/43/43 38/42/42 40/44/44
f 43/39/39 40/44/44 39/41/41
f 48/45/45 45/46/46 46/47/47
f 42/48/48 45/46/46 41/37/37
f 48/45/45 42/48/48 44/43/43
f 47/38/38 44/43/43 43/39/39
f 53/49/49 59/50/50 55/51/51
f 49/52/52 55/51/51 51/53/53
f 50/54/54 53/49/49 49/52/52
f 56/55/55 50/54/54 52/56/56
f 55/51/51 52/56/56 51/53/53
f 60/57/57 57/58/58 58/59/59
f 54/60/60 57/58/58 53/49/49
f 60/57/57 54/60/60 56/55/55
f 59/50/50 56/55/55 55/51/51
f 65/61/61 71/62/62 67/63/63
f 61/64/64 67/63/63 63/65/65
f 62/66/66 65/61/61 61/64/64
f 68/67/67 62/66/66 64/68/68
f 67/63/63 64/68/68 63/65/65
f 70/69/69 71/62/62 69/70/70
f 66/71/71 69/70/70 65/61/61
f 72/72/72 66/71/71 68/67/67
f 71/62/62 68/67/67 67/63/63
f 79/73/73 73/74/74 76/75/75
f 74/76/76 91/77/77 73/74/74
f 91/77/77 76/75/75 73/74/74
f 77/78/78 104/79/79 78/80/80
f 75/81/81 100/82/82 94/83/83
f 74/76/76 80/84/84 75/81/81
f 74/76/76 77/78/78 78/80/80
f 104/79/79 80/84/84 78/80/80
f 76/75/75 102/85/85 79/73/73
f 103/86/86 79/73/73 102/85/85
f 75/81/81 92/87/77 74/76/76
f 85/88/87 88/89/88 86/90/89
f 83/91/90 88/89/88 87/92/91
f 81/93/92 87/92/91 85/88/87
f 84/94/93 86/90/89 88/89/88
f 81/93/92 86/90/89 82/95/94
f 89/96/95 99/97/96 95/98/97
f 91/77/77 90/99/98 89/96/95
f 91/77/77 95/98/97 96/100/99
f 97/101/100 104/79/79 103/86/86
f 100/82/82 93/102/101 94/83/83
f 101/103/102 90/99/98 93/102/101
f 90/99/98 97/101/100 89/96/95
f 101/103/102 104/79/79 98/104/103
f 95/98/97 102/85/85 96/100/99
f 103/86/86 99/97/96 97/101/100
f 92/87/77 93/102/101 90/99/98
f 109/105/104 112/106/105 111/107/106
f 107/108/107 112/106/105 108/109/108
f 105/110/109 111/107/106 107/108/107
f 108/109/108 110/111/110 106/112/111
f 110/111/110 105/110/109 106/112/111
f 228/113/112 198/114/113 222/115/114
f 213/116/115 194/117/116 189/118/117
f 189/118/117 214/119/118 213/116/115
f 218/120/119 192/121/120 194/117/116
f 190/122/121 217/123/122 214/119/118
f 200/124/123 202/125/124 206/126/125
f 200/127/123 205/128/126 199/129/127
f 196/130/128 201/131/129 202/132/124
f 198/133/113 203/134/130 197/135/131
f 197/135/131 201/131/129 195/136/132
f 222/115/114 192/137/120 216/138/133
f 189/139/117 197/140/131 195/141/132
f 194/142/116 198/114/113 197/140/131
f 190/143/121 195/141/132 196/144/128
f 193/145/134 199/146/127 191/147/135
f 190/143/121 200/124/123 193/145/134
f 211/148/136 229/149/137 205/128/126
f 203/134/130 210/150/138 209/151/139
f 201/131/129 209/151/139 207/152/140
f 234/153/141 204/154/142 228/155/112
f 236/156/143 211/148/136 212/157/144
f 202/132/124 212/157/144 206/158/125
f 229/149/137 199/129/127 205/128/126
f 223/159/145 191/147/135 199/146/127
f 209/151/139 231/160/146 207/152/140
f 232/161/147 207/152/140 231/160/146
f 234/153/141 209/151/139 210/150/138
f 236/156/143 208/162/148 232/161/147
f 202/132/124 207/152/140 208/162/148
f 206/158/125 211/148/136 205/128/126
f 224/163/149 226/164/150 220/165/151
f 229/149/137 224/163/149 223/166/145
f 220/165/151 225/167/152 219/168/153
f 227/169/154 222/115/114 221/170/155
f 225/171/152 221/170/155 219/172/153
f 213/173/115 221/170/155 218/174/119
f 218/174/119 222/115/114 216/138/133
f 214/175/118 219/172/153 213/173/115
f 223/159/145 217/176/122 215/177/156
f 224/178/149 214/175/118 217/176/122
f 227/179/154 234/153/141 228/155/112
f 225/167/152 233/180/157 227/179/154
f 236/156/143 226/164/150 230/181/158
f 226/164/150 231/160/146 225/167/152
f 235/182/159 230/181/158 229/149/137
f 193/183/134 215/184/156 217/123/122
f 5/1/1 7/5/5 11/2/2
f 1/4/4 3/10/10 7/5/5
f 2/6/6 1/4/4 5/1/1
f 2/6/6 6/7/7 8/8/8
f 4/9/9 8/8/8 7/5/5
f 9/3/3 11/2/2 12/11/11
f 6/7/7 5/1/1 9/3/3
f 6/7/7 10/12/12 12/11/11
f 8/8/8 12/11/11 11/2/2
f 17/13/13 19/17/17 23/14/14
f 13/16/16 15/22/22 19/17/17
f 14/18/18 13/16/16 17/13/13
f 14/18/18 18/19/19 20/20/20
f 16/21/21 20/20/20 19/17/17
f 21/15/15 23/14/14 24/23/23
f 18/19/19 17/13/13 21/15/15
f 18/19/19 22/24/24 24/23/23
f 20/20/20 24/23/23 23/14/14
f 29/25/25 31/29/29 35/26/26
f 25/28/28 27/34/34 31/29/29
f 26/30/30 25/28/28 29/25/25
f 26/30/30 30/31/31 32/32/32
f 28/33/33 32/32/32 31/29/29
f 34/35/35 33/27/27 35/26/26
f 30/31/31 29/25/25 33/27/27
f 30/31/31 34/35/35 36/36/36
f 32/32/32 36/36/36 35/26/26
f 41/37/37 45/46/46 47/38/38
f 37/40/40 41/37/37 43/39/39
f 38/42/42 42/48/48 41/37/37
f 44/43/43 42/48/48 38/42/42
f 43/39/39 44/43/43 40/44/44
f 48/45/45 47/38/38 45/46/46
f 42/48/48 46/47/47 45/46/46
f 48/45/45 46/47/47 42/48/48
f 47/38/38 48/45/45 44/43/43
f 53/49/49 57/58/58 59/50/50
f 49/52/52 53/49/49 55/51/51
f 50/54/54 54/60/60 53/49/49
f 56/55/55 54/60/60 50/54/54
f 55/51/51 56/55/55 52/56/56
f 60/57/57 59/50/50 57/58/58
f 54/60/60 58/59/59 57/58/58
f 60/57/57 58/59/59 54/60/60
f 59/50/50 60/57/57 56/55/55
f 65/61/61 69/70/70 71/62/62
f 61/64/64 65/61/61 67/63/63
f 62/66/66 66/71/71 65/61/61
f 68/67/67 66/71/71 62/66/66
f 67/63/63 68/67/67 64/68/68
f 70/69/69 72/72/72 71/62/62
f 66/71/71 70/69/69 69/70/70
f 72/72/72 70/69/69 66/71/71
f 71/62/62 72/72/72 68/67/67
f 79/73/73 77/78/78 73/74/74
f 74/76/76 92/87/77 91/77/77
f 91/77/77 96/100/99 76/75/75
f 77/78/78 103/86/86 104/79/79
f 75/81/81 80/84/84 100/82/82
f 74/76/76 78/80/80 80/84/84
f 74/76/76 73/74/74 77/78/78
f 104/79/79 100/82/82 80/84/84
f 76/75/75 96/100/99 102/85/85
f 103/86/86 77/78/78 79/73/73
f 75/81/81 94/83/83 92/87/77
f 85/88/87 87/92/91 88/89/88
f 83/91/90 84/94/93 88/89/88
f 81/93/92 83/91/90 87/92/91
f 84/94/93 82/95/94 86/90/89
f 81/93/92 85/88/87 86/90/89
f 89/96/95 97/101/100 99/97/96
f 91/77/77 92/87/77 90/99/98
f 91/77/77 89/96/95 95/98/97
f 97/101/100 98/104/103 104/79/79
f 100/82/82 101/103/102 93/102/101
f 101/103/102 98/104/103 90/99/98
f 90/99/98 98/104/103 97/101/100
f 101/103/102 100/82/82 104/79/79
f 95/98/97 99/97/96 102/85/85
f 103/86/86 102/85/85 99/97/96
f 92/87/77 94/83/83 93/102/101
f 109/105/104 110/111/110 112/106/105
f 107/108/107 111/107/106 112/106/105
f 105/110/109 109/105/104 111/107/106
f 108/109/108 112/106/105 110/111/110
f 110/111/110 109/105/104 105/110/109
f 228/113/112 204/185/142 198/114/113
f 213/116/115 218/120/119 194/117/116
f 189/118/117 190/122/121 214/119/118
f 218/120/119 216/186/133 192/121/120
f 190/122/121 193/183/134 217/123/122
f 200/124/123 196/144/128 202/125/124
f 200/127/123 206/158/125 205/128/126
f 196/130/128 195/136/132 201/131/129
f 198/133/113 204/154/142 203/134/130
f 197/135/131 203/134/130 201/131/129
f 222/115/114 198/114/113 192/137/120
f 189/139/117 194/142/116 197/140/131
f 194/142/116 192/137/120 198/114/113
f 190/143/121 189/139/117 195/141/132
f 193/145/134 200/124/123 199/146/127
f 190/143/121 196/144/128 200/124/123
f 211/148/136 235/182/159 229/149/137
f 203/134/130 204/154/142 210/150/138
f 201/131/129 203/134/130 209/151/139
f 234/153/141 210/150/138 204/154/142
f 236/156/143 235/182/159 211/148/136
f 202/132/124 208/162/148 212/157/144
f 229/149/137 223/166/145 199/129/127
f 223/159/145 215/177/156 191/147/135
f 209/151/139 233/180/157 231/160/146
f 232/161/147 208/162/148 207/152/140
f 234/153/141 233/180/157 209/151/139
f 236/156/143 212/157/144 208/162/148
f 202/132/124 201/131/129 207/152/140
f 206/158/125 212/157/144 211/148/136
f 224/163/149 230/181/158 226/164/150
f 229/149/137 230/181/158 224/163/149
f 220/165/151 226/164/150 225/167/152
f 227/169/154 228/113/112 222/115/114
f 225/171/152 227/169/154 221/170/155
f 213/173/115 219/172/153 221/170/155
f 218/174/119 221/170/155 222/115/114
f 214/175/118 220/187/151 219/172/153
f 223/159/145 224/178/149 217/176/122
f 224/178/149 220/187/151 214/175/118
f 227/179/154 233/180/157 234/153/141
f 225/167/152 231/160/146 233/180/157
f 236/156/143 232/161/147 226/164/150
f 226/164/150 232/161/147 231/160/146
f 235/182/159 236/156/143 230/181/158
f 193/183/134 191/188/135 215/184/156
usemtl Eyes
f 115/189/160 114/190/161 121/191/162
f 119/192/163 126/193/164 120/194/165
f 117/195/166 124/196/167 118/197/168
f 116/198/169 121/191/162 122/199/170
f 113/200/171 120/194/165 126/193/164
f 118/197/168 125/201/172 119/192/163
f 116/202/169 123/203/173 117/195/166
f 126/193/164 131/204/174 132/205/175
f 123/203/173 130/206/176 124/196/167
f 121/207/162 128/208/177 122/209/170
f 113/200/171 126/193/164 132/205/175
f 124/196/167 131/204/174 125/201/172
f 122/209/170 129/210/178 123/203/173
f 121/191/162 114/190/161 127/211/179
f 130/206/176 135/212/180 136/213/181
f 127/214/179 134/215/182 128/208/177
f 113/200/171 132/205/175 138/216/183
f 131/204/174 136/213/181 137/217/184
f 128/208/177 135/212/180 129/210/178
f 127/211/179 114/190/161 133/218/185
f 132/205/175 137/217/184 138/216/183
f 113/200/171 138/216/183 144/219/186
f 136/213/181 143/220/187 137/217/184
f 134/215/182 141/221/188 135/212/180
f 133/218/185 114/190/161 139/222/189
f 138/216/183 143/220/187 144/219/186
f 135/212/180 142/223/190 136/213/181
f 134/215/182 139/224/189 140/225/191
f 113/200/171 144/219/186 150/226/192
f 142/223/190 149/227/193 143/220/187
f 140/225/191 147/228/194 141/221/188
f 139/222/189 114/190/161 145/229/195
f 143/220/187 150/226/192 144/219/186
f 141/221/188 148/230/196 142/223/190
f 140/225/191 145/231/195 146/232/197
f 153/233/198 159/234/199 152/235/200
f 164/236/201 157/237/202 158/238/203
f 162/239/204 155/240/205 156/241/206
f 154/242/207 159/234/199 153/233/198
f 151/243/208 164/236/201 158/238/203
f 163/244/209 156/241/206 157/237/202
f 161/245/210 154/246/207 155/240/205
f 170/247/211 163/244/209 164/236/201
f 168/248/212 161/245/210 162/239/204
f 166/249/213 159/250/199 160/251/214
f 151/243/208 170/247/211 164/236/201
f 169/252/215 162/239/204 163/244/209
f 167/253/216 160/251/214 161/245/210
f 159/234/199 165/254/217 152/235/200
f 168/248/212 173/255/218 167/253/216
f 172/256/219 165/257/217 166/249/213
f 151/243/208 176/258/220 170/247/211
f 169/252/215 174/259/221 168/248/212
f 173/255/218 166/249/213 167/253/216
f 165/254/217 171/260/222 152/235/200
f 176/258/220 169/252/215 170/247/211
f 151/243/208 182/261/223 176/258/220
f 181/262/224 174/259/221 175/263/225
f 179/264/226 172/256/219 173/255/218
f 171/260/222 177/265/227 152/235/200
f 176/258/220 181/262/224 175/263/225
f 180/266/228 173/255/218 174/259/221
f 172/256/219 177/267/227 171/268/222
f 151/243/208 188/269/229 182/261/223
f 187/270/230 180/266/228 181/262/224
f 185/271/231 178/272/232 179/264/226
f 177/265/227 183/273/233 152/235/200
f 188/269/229 181/262/224 182/261/223
f 186/274/234 179/264/226 180/266/228
f 178/272/232 183/275/233 177/267/227
f 119/192/163 125/201/172 126/193/164
f 117/195/166 123/203/173 124/196/167
f 116/198/169 115/189/160 121/191/162
f 118/197/168 124/196/167 125/201/172
f 116/202/169 122/209/170 123/203/173
f 126/193/164 125/201/172 131/204/174
f 123/203/173 129/210/178 130/206/176
f 121/207/162 127/214/179 128/208/177
f 124/196/167 130/206/176 131/204/174
f 122/209/170 128/208/177 129/210/178
f 130/206/176 129/210/178 135/212/180
f 127/214/179 133/276/185 134/215/182
f 131/204/174 130/206/176 136/213/181
f 128/208/177 134/215/182 135/212/180
f 132/205/175 131/204/174 137/217/184
f 136/213/181 142/223/190 143/220/187
f 134/215/182 140/225/191 141/221/188
f 138/216/183 137/217/184 143/220/187
f 135/212/180 141/221/188 142/223/190
f 134/215/182 133/276/185 139/224/189
f 142/223/190 148/230/196 149/227/193
f 140/225/191 146/232/197 147/228/194
f 143/220/187 149/227/193 150/226/192
f 141/221/188 147/228/194 148/230/196
f 140/225/191 139/224/189 145/231/195
f 164/236/201 163/244/209 157/237/202
f 162/239/204 161/245/210 155/240/205
f 154/242/207 160/277/214 159/234/199
f 163/244/209 162/239/204 156/241/206
f 161/245/210 160/251/214 154/246/207
f 170/247/211 169/252/215 163/244/209
f 168/248/212 167/253/216 161/245/210
f 166/249/213 165/257/217 159/250/199
f 169/252/215 168/248/212 162/239/204
f 167/253/216 166/249/213 160/251/214
f 168/248/212 174/259/221 173/255/218
f 172/256/219 171/268/222 165/257/217
f 169/252/215 175/263/225 174/259/221
f 173/255/218 172/256/219 166/249/213
f 176/258/220 175/263/225 169/252/215
f 181/262/224 180/266/228 174/259/221
f 179/264/226 178/272/232 172/256/219
f 176/258/220 182/261/223 181/262/224
f 180/266/228 179/264/226 173/255/218
f 172/256/219 178/272/232 177/267/227
f 187/270/230 186/274/234 180/266/228
f 185/271/231 184/278/235 178/272/232
f 188/269/229 187/270/230 181/262/224
f 186/274/234 185/271/231 179/264/226
f 178/272/232 184/278/235 183/275/233
