# Blender v2.79 (sub 0) OBJ File: 'Net.blend'
# www.blender.org
mtllib net.mtl
o Net
v 0.050748 0.022958 3.446288
v 0.045665 0.022958 0.549623
v 0.050748 -0.022960 3.446287
v 0.045665 -0.022960 0.549624
v 0.045665 0.022958 0.549623
v 0.045665 -0.022960 0.549624
v 0.481293 0.022958 0.322065
v 0.481293 -0.022960 0.322065
v 0.407939 0.050746 0.287086
v 0.407939 -0.050750 0.287086
v 0.708093 0.022957 -0.259570
v 0.708093 -0.022961 -0.259569
v 0.626985 0.050745 -0.254468
v 0.626986 -0.050751 -0.254468
v 0.512505 0.022957 -0.673189
v 0.512505 -0.022961 -0.673189
v 0.455355 0.050743 -0.615412
v 0.455355 -0.050752 -0.615412
v 0.593699 -0.050750 0.021391
v 0.670930 -0.022960 0.036330
v 0.670930 0.022958 0.036330
v 0.593699 0.050745 0.021391
v 0.304000 0.534208 0.199453
v 0.452904 0.534208 -0.022687
v 0.466809 0.534208 -0.253325
v 0.395111 0.534206 -0.474932
v 0.407939 0.050746 0.287086
v 0.626985 0.050745 -0.254468
v 0.455355 0.050743 -0.615412
v 0.593699 0.050745 0.021391
v 0.304000 0.534208 0.199453
v 0.452904 0.534208 -0.022687
v 0.466809 0.534208 -0.253325
v 0.395111 0.534206 -0.474932
v -0.050748 0.022958 3.446288
v -0.045665 0.022958 0.549623
v -0.050748 -0.022960 3.446287
v -0.045665 -0.022960 0.549624
v 0.000000 0.050747 0.482399
v 0.000000 -0.050749 0.482399
v 0.000000 0.050748 0.570376
v 0.000000 0.050748 3.446288
v 0.000000 -0.050748 0.570377
v 0.000000 -0.050748 3.446289
v -0.045665 0.022958 0.549623
v -0.045665 -0.022960 0.549624
v 0.000000 0.050747 0.482399
v 0.000000 -0.050749 0.482399
v -0.481293 0.022958 0.322065
v -0.481293 -0.022960 0.322065
v -0.407939 0.050746 0.287086
v -0.407939 -0.050750 0.287086
v -0.708093 0.022957 -0.259570
v -0.708093 -0.022961 -0.259569
v -0.626985 0.050745 -0.254468
v -0.626986 -0.050751 -0.254468
v -0.512505 0.022957 -0.673189
v -0.512505 -0.022961 -0.673189
v -0.455355 0.050743 -0.615412
v -0.455355 -0.050752 -0.615412
v 0.000000 0.022956 -0.912914
v 0.000000 -0.022962 -0.912914
v 0.000000 0.050742 -0.831731
v 0.000000 -0.050754 -0.831731
v -0.593699 -0.050750 0.021391
v -0.670930 -0.022960 0.036330
v -0.670930 0.022958 0.036330
v -0.593699 0.050745 0.021391
v 0.000000 1.109389 0.021608
v 0.000000 1.109389 -0.254251
v -0.304000 0.534208 0.199453
v -0.452904 0.534208 -0.022687
v -0.466809 0.534208 -0.253325
v -0.395111 0.534206 -0.474932
v 0.000000 0.534205 -0.668424
v 0.000000 0.534209 0.362748
v 0.000000 0.050747 0.482399
v -0.407939 0.050746 0.287086
v -0.626985 0.050745 -0.254468
v -0.455355 0.050743 -0.615412
v 0.000000 0.050742 -0.831731
v -0.593699 0.050745 0.021391
v 0.000000 1.109389 0.021608
v 0.000000 1.109389 -0.254251
v -0.304000 0.534208 0.199453
v -0.452904 0.534208 -0.022687
v -0.466809 0.534208 -0.253325
v -0.395111 0.534206 -0.474932
v 0.000000 0.534205 -0.668424
v 0.000000 0.534209 0.362748
vt 0.0000 1.0000
vt 0.6645 0.7262
vt 0.6597 1.0000
vt 0.6645 0.2738
vt 0.0000 0.0001
vt 0.6597 0.0001
vt 0.0000 0.7262
vt 0.0000 0.2738
vt 0.6799 1.0000
vt 0.6645 0.7262
vt 0.6799 1.0000
vt 0.6799 0.0000
vt 0.7247 1.0000
vt 0.6645 0.2738
vt 0.6799 0.0000
vt 0.7822 0.2738
vt 0.8490 0.0000
vt 0.8501 0.2738
vt 0.7247 0.0000
vt 0.7167 0.2738
vt 0.7167 0.7262
vt 0.9318 1.0000
vt 0.9318 0.0000
vt 0.8501 0.7262
vt 0.7822 0.7262
vt 0.8490 1.0000
vt 0.7857 1.0000
vt 0.7857 0.0000
vt 1.0000 0.2738
vt 0.9450 0.2738
vt 0.9450 0.7262
vt 1.0000 0.7262
vt 0.9814 0.9999
vt 0.9814 0.0000
vt 0.6645 0.7262
vt 0.6645 0.2738
vt 0.0000 0.7262
vt 0.0000 0.2738
vt 0.6645 0.7262
vt 0.7247 1.0000
vt 0.6645 0.2738
vt 0.7822 0.2738
vt 0.8501 0.2738
vt 0.8490 0.0000
vt 0.7247 0.0000
vt 0.7167 0.2738
vt 0.7167 0.7262
vt 0.9318 0.0000
vt 0.9318 1.0000
vt 0.7822 0.7262
vt 0.8501 0.7262
vt 0.7857 1.0000
vt 0.8490 1.0000
vt 0.7857 0.0000
vt 0.9450 0.2738
vt 0.9450 0.7262
vt -1.1937 0.2423
vt -0.1881 0.2423
vt -1.0319 3.4747
vt 0.8561 0.2423
vt 1.8594 0.2423
vt 1.1211 3.4747
vt 4.3537 0.2423
vt -3.6944 0.2423
vt -0.3876 -2.4747
vt 0.8613 -2.4747
vt -4.6283 -2.4747
vt -1.5905 -2.4747
vt 5.6283 -2.4747
vt 2.4954 -2.4747
vt 5.6283 -2.4747
vt 1.8594 0.2423
vt 4.3537 0.2423
vt -1.5905 -2.4747
vt -0.1881 0.2423
vt -0.3876 -2.4747
vt -1.1937 0.2423
vt -0.1881 0.2423
vt 0.8561 0.2423
vt 1.8594 0.2423
vt 0.8613 -2.4747
vt -0.3876 -2.4747
vt -1.5905 -2.4747
vt 2.4954 -2.4747
vt 1.8594 0.2423
vt -1.5905 -2.4747
vt -0.3876 -2.4747
vt -0.1881 0.2423
vt -1.1937 0.2423
vt -1.0319 3.4747
vt 0.8561 0.2423
vt 1.1211 3.4747
vt -3.6944 0.2423
vt 0.8613 -2.4747
vt -4.6283 -2.4747
vt 2.4954 -2.4747
vt -1.1937 0.2423
vt 0.8561 0.2423
vt 0.8613 -2.4747
vt 2.4954 -2.4747
vn 0.0000 0.7901 0.6129
vn 0.6023 0.4455 0.6623
vn 0.0000 1.0000 0.0000
vn 0.6023 -0.4455 0.6623
vn 0.0000 -0.7901 0.6129
vn 0.0000 -1.0000 0.0000
vn 0.6833 0.4046 0.6078
vn 0.6833 -0.4046 0.6078
vn 0.0000 0.3431 0.9393
vn 0.1808 0.2950 0.9382
vn 0.0000 0.6754 0.7374
vn 0.0000 -0.3432 0.9393
vn 0.1496 0.9698 0.1928
vn 0.1808 -0.2950 0.9382
vn 0.0000 -0.9200 0.3919
vn 0.7905 -0.5399 0.2892
vn -0.4617 -0.8843 0.0697
vn 0.8336 -0.5367 -0.1307
vn -0.3134 -0.8867 -0.3398
vn 0.5717 -0.5331 0.6236
vn 0.5717 0.5331 0.6236
vn 0.1400 0.9793 -0.1461
vn -0.3111 -0.8983 0.3103
vn 0.8336 0.5367 -0.1307
vn 0.7905 0.5399 0.2892
vn 0.1985 0.9796 -0.0325
vn 0.2013 0.9766 0.0752
vn -0.4485 -0.8783 -0.1654
vn 0.4132 -0.4713 -0.7792
vn 0.5988 -0.5286 -0.6017
vn 0.5988 0.5286 -0.6016
vn 0.4132 0.4713 -0.7792
vn 0.2575 0.9480 -0.1871
vn 0.2940 -0.8810 0.3706
vn -0.6023 0.4455 0.6623
vn -0.6023 -0.4455 0.6623
vn -0.6833 0.4046 0.6078
vn -0.6833 -0.4046 0.6078
vn -0.1808 0.2950 0.9382
vn -0.1496 0.9698 0.1928
vn -0.1808 -0.2950 0.9382
vn -0.7905 -0.5399 0.2892
vn -0.8336 -0.5367 -0.1307
vn 0.4617 -0.8843 0.0697
vn 0.3134 -0.8867 -0.3398
vn -0.5717 -0.5331 0.6236
vn -0.5717 0.5331 0.6236
vn 0.3111 -0.8983 0.3103
vn -0.1400 0.9793 -0.1461
vn -0.7905 0.5399 0.2892
vn -0.8336 0.5367 -0.1307
vn -0.2013 0.9766 0.0752
vn -0.1985 0.9796 -0.0325
vn 0.4485 -0.8783 -0.1654
vn -0.5988 -0.5286 -0.6017
vn -0.5988 0.5286 -0.6016
vn 0.6217 0.3782 0.6859
vn 0.8556 0.4392 0.2740
vn 0.0000 0.9201 0.3916
vn 0.8846 0.4501 -0.1221
vn 0.6999 0.4296 -0.5705
vn 0.0000 0.9431 -0.3324
vn 0.0000 0.4410 -0.8975
vn 0.0000 0.3645 0.9312
vn 0.0000 -0.3256 0.9455
vn -0.6999 -0.4296 0.5705
vn 0.0000 -0.4410 0.8975
vn -0.6298 -0.2711 -0.7278
vn -0.8556 -0.4392 -0.2740
vn -0.8942 -0.3009 -0.3313
vn -0.6217 0.3782 0.6859
vn -0.8556 0.4392 0.2740
vn -0.8846 0.4501 -0.1221
vn -0.6999 0.4296 -0.5705
vn 0.6999 -0.4296 0.5705
vn 0.6298 -0.2711 -0.7278
vn 0.8942 -0.3009 -0.3313
vn 0.8556 -0.4392 -0.2740
vn -0.6217 -0.3782 -0.6859
vn 0.0000 -0.9201 -0.3916
vn -0.8846 -0.4501 0.1221
vn 0.0000 -0.9431 0.3324
vn 0.0000 -0.3645 -0.9312
vn -0.9390 -0.3114 0.1457
vn 0.0000 -0.2608 -0.9654
vn -0.6697 -0.3020 0.6784
vn 0.6217 -0.3782 -0.6859
vn 0.8846 -0.4501 0.1221
vn 0.9390 -0.3114 0.1457
vn 0.6697 -0.3020 0.6784
usemtl Material.001
s 1
f 42/1/1 2/2/2 41/3/3
f 4/4/4 44/5/5 43/6/6
f 44/5/5 1/7/7 42/1/1
f 3/8/8 2/2/2 1/7/7
f 39/9/9 5/10/10 47/11/11
f 41/3/3 2/2/2 39/9/9
f 4/4/4 43/6/6 40/12/12
f 5/10/10 9/13/13 47/11/11
f 2/2/2 6/14/14 5/10/10
f 4/4/4 48/15/15 6/14/14
f 20/16/16 14/17/17 12/18/18
f 48/15/15 9/13/13 10/19/19
f 6/14/14 10/19/19 8/20/20
f 6/14/14 7/21/21 5/10/10
f 14/17/17 17/22/22 18/23/23
f 20/16/16 11/24/24 21/25/25
f 21/25/25 13/26/26 22/27/27
f 19/28/28 13/26/26 14/17/17
f 18/23/23 62/29/29 16/30/30
f 14/17/17 16/30/30 12/18/18
f 11/24/24 16/30/30 15/31/31
f 13/26/26 15/31/31 17/22/22
f 15/31/31 62/29/29 61/32/32
f 17/22/22 61/32/32 63/33/33
f 17/22/22 64/34/34 18/23/23
f 10/19/19 22/27/27 19/28/28
f 7/21/21 22/27/27 9/13/13
f 8/20/20 21/25/25 7/21/21
f 8/20/20 19/28/28 20/16/16
f 42/1/1 1/7/7 2/2/2
f 4/4/4 3/8/8 44/5/5
f 44/5/5 3/8/8 1/7/7
f 3/8/8 4/4/4 2/2/2
f 39/9/9 2/2/2 5/10/10
f 5/10/10 7/21/21 9/13/13
f 2/2/2 4/4/4 6/14/14
f 4/4/4 40/12/12 48/15/15
f 20/16/16 19/28/28 14/17/17
f 48/15/15 47/11/11 9/13/13
f 6/14/14 48/15/15 10/19/19
f 6/14/14 8/20/20 7/21/21
f 14/17/17 13/26/26 17/22/22
f 20/16/16 12/18/18 11/24/24
f 21/25/25 11/24/24 13/26/26
f 19/28/28 22/27/27 13/26/26
f 18/23/23 64/34/34 62/29/29
f 14/17/17 18/23/23 16/30/30
f 11/24/24 12/18/18 16/30/30
f 13/26/26 11/24/24 15/31/31
f 15/31/31 16/30/30 62/29/29
f 17/22/22 15/31/31 61/32/32
f 17/22/22 63/33/33 64/34/34
f 10/19/19 9/13/13 22/27/27
f 7/21/21 21/25/25 22/27/27
f 8/20/20 20/16/16 21/25/25
f 8/20/20 10/19/19 19/28/28
f 42/1/1 41/3/3 36/35/35
f 38/36/36 43/6/6 44/5/5
f 44/5/5 42/1/1 35/37/37
f 37/38/38 35/37/37 36/35/35
f 39/9/9 47/11/11 45/39/39
f 41/3/3 39/9/9 36/35/35
f 38/36/36 40/12/12 43/6/6
f 45/39/39 47/11/11 51/40/40
f 36/35/35 45/39/39 46/41/41
f 38/36/36 46/41/41 48/15/15
f 66/42/42 54/43/43 56/44/44
f 48/15/15 52/45/45 51/40/40
f 46/41/41 50/46/46 52/45/45
f 46/41/41 45/39/39 49/47/47
f 56/44/44 60/48/48 59/49/49
f 66/42/42 67/50/50 53/51/51
f 67/50/50 68/52/52 55/53/53
f 65/54/54 56/44/44 55/53/53
f 60/48/48 58/55/55 62/29/29
f 56/44/44 54/43/43 58/55/55
f 53/51/51 57/56/56 58/55/55
f 55/53/53 59/49/49 57/56/56
f 57/56/56 61/32/32 62/29/29
f 59/49/49 63/33/33 61/32/32
f 59/49/49 60/48/48 64/34/34
f 62/29/29 61/32/32 63/33/33
f 52/45/45 65/54/54 68/52/52
f 49/47/47 51/40/40 68/52/52
f 50/46/46 49/47/47 67/50/50
f 50/46/46 66/42/42 65/54/54
f 42/1/1 36/35/35 35/37/37
f 38/36/36 44/5/5 37/38/38
f 44/5/5 35/37/37 37/38/38
f 37/38/38 36/35/35 38/36/36
f 39/9/9 45/39/39 36/35/35
f 45/39/39 51/40/40 49/47/47
f 36/35/35 46/41/41 38/36/36
f 38/36/36 48/15/15 40/12/12
f 66/42/42 56/44/44 65/54/54
f 48/15/15 51/40/40 47/11/11
f 46/41/41 52/45/45 48/15/15
f 46/41/41 49/47/47 50/46/46
f 56/44/44 59/49/49 55/53/53
f 66/42/42 53/51/51 54/43/43
f 67/50/50 55/53/53 53/51/51
f 65/54/54 55/53/53 68/52/52
f 60/48/48 62/29/29 64/34/34
f 56/44/44 58/55/55 60/48/48
f 53/51/51 58/55/55 54/43/43
f 55/53/53 57/56/56 53/51/51
f 57/56/56 62/29/29 58/55/55
f 59/49/49 61/32/32 57/56/56
f 59/49/49 64/34/34 63/33/33
f 62/29/29 63/33/33 64/34/34
f 52/45/45 68/52/52 51/40/40
f 49/47/47 68/52/52 67/50/50
f 50/46/46 67/50/50 66/42/42
f 50/46/46 65/54/54 52/45/45
usemtl Material.001_Net.png
f 23/57/57 24/58/58 69/59/59
f 25/60/60 26/61/61 70/62/62
f 75/63/63 70/62/62 26/61/61
f 23/57/57 69/59/59 76/64/64
f 70/62/62 24/58/58 25/60/60
f 25/60/60 22/65/27 13/66/26
f 23/57/57 47/67/11 9/68/13
f 63/69/33 26/61/61 17/70/22
f 17/70/22 25/60/60 13/66/26
f 9/68/13 24/58/58 23/57/57
f 81/71/65 34/72/66 89/73/67
f 27/74/68 32/75/69 30/76/70
f 70/62/62 69/59/59 24/58/58
f 25/60/60 24/58/58 22/65/27
f 23/57/57 76/64/64 47/67/11
f 17/70/22 26/61/61 25/60/60
f 71/77/71 69/59/59 72/78/72
f 73/79/73 70/62/62 74/80/74
f 75/63/63 74/80/74 70/62/62
f 71/77/71 76/64/64 69/59/59
f 70/62/62 73/79/73 72/78/72
f 73/79/73 55/81/53 68/82/52
f 71/77/71 51/83/40 47/67/11
f 63/69/33 59/84/49 74/80/74
f 59/84/49 55/81/53 73/79/73
f 51/83/40 71/77/71 72/78/72
f 81/71/65 89/73/67 88/85/75
f 78/86/76 82/87/77 86/88/78
f 70/62/62 72/78/72 69/59/59
f 73/79/73 68/82/52 72/78/72
f 71/77/71 47/67/11 76/64/64
f 59/84/49 73/79/73 74/80/74
usemtl Material.002
f 31/89/79 83/90/80 32/75/69
f 33/91/81 84/92/82 34/72/66
f 89/73/67 34/72/66 84/92/82
f 31/89/79 90/93/83 83/90/80
f 32/75/69 84/92/82 33/91/81
f 30/76/70 33/91/81 28/94/84
f 77/95/85 31/89/79 27/74/68
f 33/91/81 29/96/86 28/94/84
f 63/69/33 75/63/63 26/61/61
f 9/68/13 22/65/27 24/58/58
f 32/75/69 83/90/80 84/92/82
f 30/76/70 32/75/69 33/91/81
f 77/95/85 90/93/83 31/89/79
f 81/71/65 29/96/86 34/72/66
f 33/91/81 34/72/66 29/96/86
f 27/74/68 31/89/79 32/75/69
f 85/97/87 86/88/78 83/90/80
f 87/98/88 88/85/75 84/92/82
f 89/73/67 84/92/82 88/85/75
f 85/97/87 83/90/80 90/93/83
f 86/88/78 87/98/88 84/92/82
f 82/87/77 79/99/89 87/98/88
f 77/95/85 78/86/76 85/97/87
f 87/98/88 79/99/89 80/100/90
f 63/69/33 74/80/74 75/63/63
f 51/83/40 72/78/72 68/82/52
f 86/88/78 84/92/82 83/90/80
f 82/87/77 87/98/88 86/88/78
f 77/95/85 85/97/87 90/93/83
f 81/71/65 88/85/75 80/100/90
f 87/98/88 80/100/90 88/85/75
f 78/86/76 86/88/78 85/97/87
